<?xml version="1.0" encoding="utf-8"?>
<!-- Generator: Adobe Illustrator 24.2.0, SVG Export Plug-In . SVG Version: 6.00 Build 0)  -->
<svg version="1.1" id="Capa_1_copia" xmlns="http://www.w3.org/2000/svg" xmlns:xlink="http://www.w3.org/1999/xlink" x="0px"
	 y="0px" viewBox="0 0 876 876" style="enable-background:new 0 0 876 876;" xml:space="preserve">
<style type="text/css">
	.st0{fill:#00091b;}
</style>
<path class="st0" d="M3072.91,638.23c-9.48-9.97-17.47-23.22-18.9-37.37c66.72-32.09,132.84-94.25,166.95-133.98
	c-8.33-21.73-52.76-63.44-79.02-69.08l4.26-26.28c0,0,9.78-1.53,26.14-2.02c13.05,31.88,44.52,71.42,62.95,82.75
	c210.95-189.11,267.68-228.11,311.24-298.77c65.36-17.82,174.79-115.5,174.79-115.5s-99.49,108.35-121.93,172.27
	c-66.16,41.48-125.43,86.23-328.23,280.52c9.99,19.19,47.18,53.4,78.05,68.69c-1.65,16.28-3.88,25.93-3.88,25.93l-26.51,2.37
	c-3.75-26.6-42.18-73.89-63.27-83.75c-42.06,31.19-108.77,92.71-145.54,156.97c-14.02-2.44-26.66-11.36-35.93-21.52"/>
<g>
	<circle class="st0" cx="4045.11" cy="90.76" r="52.77"/>
	<path class="st0" d="M4233.41,113.74c0-48.45-22.32-92.2-58.22-123.44c13.33,22.51,20.98,48.78,20.98,76.84
		c0,83.43-67.64,151.07-151.07,151.07c-83.43,0-151.07-67.64-151.07-151.07c0-32.13,10.04-61.91,27.14-86.4
		c-42.82,31.51-70.16,79.38-70.16,133c0,87.54,72.87,159.73,167.07,170.4l4.83,91.4l-73.24,6.89l10.15,45.66h65.87l19.36,365.97
		l17.37-365.97h69.03l9.07-63.62l-75.42,7.1l4.17-87.76C4162.05,271.99,4233.41,200.37,4233.41,113.74z"/>
</g>
<g>
	<path class="st0" d="M655.59,304.4c-117.83,13.97-224.39,52.67-339.21,110.2c-3.79-38.14-7.04-73.04-14.42-113.6
		c86.43-11.88,195.55,17.36,195.55,17.36S405,261.75,268.79,265.06c4.91,48.8,3.87,154.8-5.24,236.04
		c116.1-76.24,235.75-147.76,325.28-168.78c-28.38,22.98-89.97,82.24-148.13,147.98c-5.12,50.39-56.68,94.22-113.12,52.57
		c18.45,49.64,23.76,89.3,29.36,127.69C431.49,549.51,567.98,375.79,655.59,304.4z"/>
	<path class="st0" d="M119.32,437.14c0-178.69,144.86-323.55,323.55-323.55s323.55,144.86,323.55,323.55
		S621.57,760.69,442.88,760.69S119.32,615.83,119.32,437.14z M692.28,285.22c-0.44-0.71-0.99-1.36-1.62-1.97
		c-4.1-3.96-10.64-3.85-14.6,0.25c-3.96,4.1-3.85,10.64,0.25,14.6c1.91,1.85,4.27,3.11,6.8,3.2c-5.52,0.64-11.28-1.1-15.59-5.26
		c-7.64-7.37-7.85-19.54-0.47-27.18l1.57-1.6c4.21-4.36,3.83-11.31-0.11-15.48l0.18,0.2c-0.53-0.64-1.17-1.21-1.87-1.72
		c-4.61-3.35-11.07-2.33-14.42,2.28c-3.35,4.61-2.33,11.07,2.28,14.42c2.15,1.56,4.66,2.49,7.18,2.22
		c-5.38,1.4-11.32,0.48-16.17-3.04c-8.59-6.24-10.49-18.26-4.25-26.85l1.33-1.8c3.56-4.9,2.22-11.74-2.26-15.31l0.2,0.18
		c-0.62-0.56-1.33-1.03-2.09-1.44c-5.03-2.68-11.28-0.77-13.96,4.27c-2.68,5.03-0.77,11.28,4.27,13.96c2.35,1.25,4.96,1.82,7.42,1.2
		c-5.13,2.14-11.14,2.05-16.43-0.76c-9.37-4.98-12.93-16.62-7.95-26l1.07-1.97c2.84-5.35,0.56-11.93-4.37-14.85l0.23,0.15
		c-0.69-0.47-1.46-0.84-2.28-1.14c-5.36-1.95-11.28,0.81-13.23,6.17c-1.95,5.36,0.81,11.28,6.17,13.23c2.5,0.91,5.16,1.11,7.52,0.16
		c-4.78,2.83-10.75,3.58-16.38,1.53c-9.98-3.63-15.12-14.66-11.49-24.64l0.78-2.1c2.07-5.69-1.1-11.89-6.39-14.09l0.25,0.11
		c-0.75-0.37-1.56-0.63-2.41-0.81c-5.58-1.19-11.06,2.37-12.24,7.95c-1.19,5.58,2.37,11.06,7.95,12.24c2.6,0.55,5.27,0.38,7.47-0.89
		c-4.34,3.47-10.14,5.04-16.01,3.8c-10.38-2.21-17.01-12.41-14.81-22.8l0.48-2.19c1.26-5.92-2.75-11.62-8.29-13.07l0.26,0.08
		c-0.79-0.26-1.63-0.41-2.5-0.47c-5.69-0.4-10.62,3.89-11.02,9.58s3.89,10.62,9.58,11.02c2.65,0.19,5.27-0.36,7.27-1.92
		c-3.82,4.04-9.34,6.4-15.32,5.99c-10.59-0.74-18.58-9.93-17.83-20.52l0.17-2.24c0.42-6.04-4.34-11.13-10.03-11.79l0.27,0.04
		c-0.82-0.15-1.67-0.18-2.54-0.11c-5.69,0.4-9.97,5.33-9.58,11.02c0.4,5.69,5.33,9.97,11.02,9.58c2.65-0.19,5.17-1.09,6.93-2.92
		c-3.22,4.53-8.36,7.64-14.34,8.06c-10.59,0.74-19.78-7.24-20.52-17.83l-0.14-2.24c-0.42-6.04-5.85-10.42-11.57-10.28l0.27,0
		c-0.83-0.03-1.68,0.06-2.53,0.24c-5.58,1.19-9.14,6.67-7.95,12.24c1.19,5.58,6.67,9.14,12.24,7.95c2.6-0.55,4.97-1.8,6.46-3.85
		c-2.55,4.94-7.22,8.73-13.08,9.98c-10.38,2.21-20.59-4.42-22.8-14.81l-0.45-2.2c-1.26-5.92-7.24-9.5-12.89-8.56l0.27-0.03
		c-0.83,0.09-1.66,0.29-2.47,0.59c-5.36,1.95-8.12,7.87-6.17,13.23c1.95,5.36,7.87,8.12,13.23,6.17c2.5-0.91,4.67-2.47,5.86-4.71
		c-1.84,5.24-5.93,9.65-11.56,11.7c-9.98,3.63-21.01-1.51-24.64-11.49l-0.75-2.11c-2.07-5.69-8.49-8.4-13.96-6.69l0.26-0.07
		c-0.81,0.2-1.6,0.52-2.37,0.93c-5.03,2.68-6.94,8.93-4.27,13.96c2.68,5.03,8.93,6.94,13.96,4.27c2.35-1.25,4.28-3.1,5.15-5.48
		c-1.1,5.45-4.53,10.38-9.82,13.2c-9.37,4.98-21.01,1.43-26-7.95l-1.04-1.99c-2.84-5.35-9.58-7.14-14.75-4.68l0.25-0.11
		c-0.77,0.31-1.51,0.74-2.22,1.25c-4.61,3.35-5.63,9.81-2.28,14.42c3.35,4.61,9.81,5.63,14.42,2.28c2.15-1.56,3.81-3.66,4.33-6.15
		c-0.33,5.55-3.04,10.91-7.89,14.43c-8.59,6.24-20.61,4.34-26.85-4.25l-1.3-1.82c-3.56-4.9-10.48-5.74-15.26-2.58l0.23-0.14
		c-0.72,0.42-1.39,0.94-2.02,1.55c-4.1,3.96-4.21,10.49-0.25,14.6s10.49,4.21,14.6,0.25c1.91-1.85,3.26-4.16,3.44-6.69
		c0.45,5.54-1.49,11.23-5.8,15.39c-7.64,7.37-19.81,7.16-27.18-0.47l-1.55-1.62c-4.21-4.36-11.17-4.22-15.47-0.43l0.21-0.17
		c-0.66,0.51-1.25,1.13-1.79,1.81c-3.51,4.49-2.71,10.98,1.78,14.49c4.49,3.51,10.98,2.71,14.49-1.78c1.64-2.09,2.65-4.57,2.47-7.1
		c1.22,5.42,0.08,11.33-3.6,16.05c-6.54,8.37-18.62,9.85-26.98,3.31l-1.76-1.39c-4.77-3.73-11.65-2.63-15.38,1.73l0.19-0.2
		c-0.58,0.6-1.08,1.29-1.52,2.04c-2.85,4.94-1.16,11.25,3.78,14.1c4.94,2.85,11.25,1.16,14.1-3.78c1.33-2.3,1.99-4.89,1.46-7.38
		c1.96,5.2,1.66,11.21-1.34,16.4c-5.31,9.19-17.06,12.34-26.26,7.04l-1.93-1.14c-5.25-3.03-11.9-0.98-14.99,3.85l0.16-0.22
		c-0.49,0.67-0.89,1.43-1.22,2.23c-2.14,5.29,0.42,11.3,5.7,13.44c5.29,2.14,11.3-0.42,13.44-5.7c1-2.46,1.29-5.12,0.42-7.51
		c2.66,4.88,3.2,10.87,0.96,16.42c-3.98,9.84-15.18,14.6-25.02,10.62l-2.07-0.86c-5.62-2.27-11.92,0.69-14.31,5.9l0.12-0.24
		c-0.39,0.74-0.68,1.54-0.89,2.38c-1.38,5.53,1.99,11.13,7.52,12.51c5.53,1.38,11.13-1.99,12.51-7.52c0.64-2.58,0.56-5.25-0.63-7.49
		c3.32,4.46,4.68,10.31,3.23,16.13c-2.57,10.3-13,16.57-23.3,14l-2.17-0.56c-5.88-1.47-11.71,2.34-13.35,7.83l0.09-0.26
		c-0.29,0.78-0.46,1.62-0.55,2.48c-0.6,5.67,3.52,10.75,9.19,11.34c5.67,0.6,10.75-3.52,11.34-9.19c0.28-2.64-0.17-5.28-1.67-7.33
		c3.91,3.96,6.07,9.56,5.45,15.52c-1.11,10.56-10.57,18.22-21.13,17.11l-2.23-0.25c-6.02-0.63-11.27,3.95-12.13,9.61l0.05-0.27
		c-0.17,0.81-0.23,1.67-0.2,2.54c0.2,5.7,4.98,10.15,10.68,9.96c5.7-0.2,10.15-4.98,9.96-10.68c-0.09-2.66-0.91-5.2-2.67-7.03
		c4.42,3.37,7.35,8.62,7.56,14.61c0.37,10.61-7.93,19.51-18.54,19.88l-2.24,0.06c-6.05,0.21-10.61,5.48-10.67,11.21l0.01-0.27
		c-0.06,0.83,0,1.68,0.15,2.54c0.99,5.61,6.34,9.36,11.96,8.37s9.36-6.34,8.37-11.96c-0.46-2.62-1.62-5.03-3.62-6.59
		c4.84,2.73,8.47,7.52,9.52,13.42c1.84,10.45-5.14,20.42-15.59,22.27l-2.21,0.37c-5.97,1.05-9.75,6.9-9.01,12.58l-0.02-0.27
		c0.06,0.83,0.23,1.66,0.5,2.49c1.76,5.42,7.58,8.39,13.01,6.63c5.42-1.76,8.39-7.58,6.63-13.01c-0.82-2.53-2.31-4.75-4.51-6.02
		c5.18,2.02,9.44,6.26,11.29,11.96c3.28,10.1-2.24,20.94-12.34,24.22l-2.14,0.68c-5.76,1.87-8.69,8.19-7.17,13.72l-0.06-0.26
		c0.17,0.82,0.46,1.62,0.85,2.4c2.5,5.12,8.68,7.25,13.8,4.75c5.12-2.5,7.25-8.68,4.75-13.8c-1.16-2.39-2.94-4.39-5.3-5.34
		c5.41,1.28,10.22,4.89,12.85,10.28c4.65,9.54,0.69,21.05-8.85,25.7l-2.02,0.97c-5.44,2.66-7.47,9.32-5.19,14.58l-0.1-0.25
		c0.28,0.78,0.68,1.54,1.17,2.26c3.19,4.73,9.6,5.97,14.33,2.79c4.73-3.19,5.97-9.6,2.79-14.33c-1.49-2.2-3.53-3.93-5.99-4.55
		c5.53,0.52,10.8,3.42,14.15,8.39c5.94,8.8,3.61,20.75-5.19,26.69l-1.87,1.24c-5.02,3.39-6.1,10.27-3.11,15.16l-0.13-0.24
		c0.39,0.74,0.89,1.43,1.47,2.07c3.81,4.24,10.34,4.58,14.58,0.76c4.24-3.81,4.58-10.34,0.76-14.58c-1.78-1.97-4.04-3.4-6.57-3.67
		c5.55-0.26,11.17,1.88,15.18,6.34c7.1,7.89,6.47,20.04-1.42,27.15l-1.68,1.49c-4.5,4.05-4.61,11.02-0.97,15.45l-0.16-0.22
		c0.49,0.68,1.08,1.29,1.75,1.85c4.37,3.66,10.88,3.09,14.54-1.27c3.66-4.37,3.09-10.88-1.27-14.54c-2.04-1.71-4.47-2.81-7.01-2.72
		c5.46-1.03,11.32,0.31,15.91,4.16c8.13,6.82,9.19,18.95,2.37,27.08l-1.45,1.71c-3.89,4.64-3.03,11.55,1.19,15.43l-0.19-0.19
		c0.58,0.6,1.25,1.12,1.99,1.59c4.83,3.02,11.2,1.55,14.22-3.28c3.02-4.83,1.55-11.2-3.28-14.22c-2.25-1.41-4.82-2.16-7.32-1.72
		c5.27-1.78,11.26-1.27,16.34,1.91c9,5.63,11.74,17.48,6.12,26.49l-1.2,1.89c-3.21,5.14-1.39,11.86,3.32,15.12l-0.22-0.16
		c0.66,0.51,1.39,0.94,2.19,1.29c5.21,2.32,11.31-0.02,13.63-5.23s-0.02-11.31-5.23-13.63c-2.43-1.08-5.07-1.47-7.49-0.68
		c4.97-2.49,10.97-2.82,16.45-0.39c9.7,4.32,14.06,15.68,9.74,25.38l-0.93,2.04c-2.46,5.53,0.27,11.94,5.39,14.51l-0.24-0.13
		c0.72,0.42,1.51,0.74,2.35,0.98c5.48,1.57,11.2-1.6,12.77-7.08s-1.6-11.2-7.08-12.77c-2.55-0.73-5.23-0.75-7.51,0.37
		c4.57-3.16,10.47-4.32,16.23-2.67c10.2,2.93,16.11,13.57,13.18,23.78l-0.63,2.15c-1.67,5.82,1.93,11.79,7.36,13.61l-0.25-0.1
		c0.77,0.31,1.6,0.52,2.46,0.64c5.65,0.79,10.86-3.14,11.66-8.78c0.79-5.65-3.14-10.86-8.78-11.66c-2.63-0.37-5.28-0.01-7.39,1.41
		c4.09-3.76,9.77-5.74,15.7-4.9c10.51,1.48,17.84,11.2,16.36,21.71l-0.33,2.22c-0.84,6,3.55,11.4,9.18,12.46l-0.26-0.06
		c0.81,0.2,1.66,0.29,2.53,0.29c5.7,0,10.32-4.62,10.32-10.32c0-5.7-4.62-10.32-10.32-10.32c-2.66,0-5.23,0.72-7.12,2.42
		c3.53-4.3,8.88-7.04,14.87-7.04c10.62,0,19.22,8.61,19.22,19.22l-0.02,2.24c0,6.06,5.1,10.8,10.83,11.06l-0.27-0.02
		c0.83,0.09,1.68,0.06,2.54-0.06c5.65-0.79,9.58-6.01,8.78-11.66c-0.79-5.65-6.01-9.58-11.66-8.79c-2.63,0.37-5.08,1.45-6.71,3.39
		c2.89-4.75,7.81-8.21,13.74-9.04c10.51-1.48,20.23,5.85,21.71,16.36l0.3,2.22c0.84,6,6.56,9.98,12.26,9.44l-0.27,0.01
		c0.83-0.03,1.67-0.18,2.51-0.42c5.48-1.57,8.65-7.29,7.08-12.77c-1.57-5.48-7.29-8.65-12.77-7.08c-2.55,0.73-4.83,2.14-6.17,4.29
		c2.2-5.1,6.59-9.21,12.35-10.87c10.2-2.93,20.85,2.97,23.78,13.18l0.6,2.16c1.67,5.82,7.88,8.97,13.46,7.64l-0.27,0.05
		c0.82-0.14,1.63-0.41,2.43-0.76c5.21-2.32,7.55-8.42,5.23-13.63c-2.32-5.21-8.42-7.55-13.63-5.23c-2.43,1.08-4.49,2.79-5.52,5.11
		c1.47-5.36,5.24-10.04,10.72-12.48c9.7-4.32,21.06,0.04,25.38,9.74l0.9,2.05c2.46,5.53,9.06,7.79,14.39,5.7l-0.26,0.09
		c0.79-0.26,1.56-0.63,2.3-1.09c4.83-3.02,6.3-9.39,3.28-14.22c-3.02-4.83-9.39-6.3-14.22-3.28c-2.25,1.41-4.05,3.39-4.75,5.83
		c0.71-5.51,3.8-10.67,8.88-13.85c9-5.63,20.86-2.89,26.49,6.12l1.17,1.91c3.21,5.14,10.05,6.45,15.04,3.64l-0.24,0.12
		c0.75-0.36,1.46-0.84,2.12-1.4c4.37-3.66,4.94-10.17,1.27-14.54c-3.66-4.37-10.17-4.94-14.54-1.27c-2.04,1.71-3.54,3.92-3.9,6.43
		c-0.06-5.56,2.27-11.1,6.86-14.95c8.13-6.82,20.26-5.76,27.08,2.37l1.43,1.73c3.89,4.64,10.85,4.99,15.4,1.51l-0.22,0.16
		c0.69-0.46,1.32-1.04,1.91-1.68c3.81-4.24,3.47-10.76-0.76-14.58s-10.76-3.47-14.58,0.76c-1.78,1.97-2.96,4.37-2.96,6.91
		c-0.83-5.5,0.71-11.31,4.72-15.76c7.1-7.89,19.26-8.53,27.15-1.42l1.66,1.51c4.5,4.05,11.44,3.43,15.46-0.65l-0.2,0.18
		c0.62-0.56,1.17-1.21,1.65-1.93c3.19-4.73,1.94-11.14-2.79-14.33c-4.73-3.19-11.14-1.94-14.33,2.79c-1.49,2.2-2.33,4.74-1.97,7.26
		c-1.59-5.33-0.87-11.29,2.48-16.26c5.94-8.8,17.88-11.12,26.69-5.19l1.85,1.27c5.02,3.39,11.81,1.81,15.22-2.79l-0.17,0.21
		c0.54-0.64,0.99-1.36,1.37-2.14c2.5-5.12,0.37-11.3-4.75-13.8s-11.3-0.37-13.8,4.75c-1.16,2.39-1.64,5.02-0.94,7.46
		c-2.32-5.05-2.44-11.06,0.19-16.45c4.65-9.54,16.16-13.5,25.7-8.85l2.01,1c5.44,2.66,11.94,0.15,14.69-4.89l-0.14,0.23
		c0.44-0.71,0.79-1.48,1.06-2.31c1.76-5.42-1.21-11.24-6.63-13.01c-5.42-1.76-11.24,1.21-13.01,6.63c-0.82,2.53-0.93,5.2,0.11,7.52
		c-3-4.68-3.95-10.62-2.1-16.32c3.28-10.1,14.12-15.62,24.22-12.34l2.13,0.71c5.76,1.87,11.85-1.52,13.86-6.88l-0.11,0.25
		c0.34-0.76,0.57-1.58,0.73-2.44c0.99-5.61-2.76-10.97-8.37-11.96c-5.61-0.99-10.97,2.76-11.96,8.37c-0.46,2.62-0.2,5.28,1.15,7.43
		c-3.62-4.22-5.39-9.96-4.35-15.86c1.84-10.45,11.81-17.44,22.27-15.59l2.21,0.41c5.97,1.05,11.52-3.15,12.77-8.74l-0.07,0.26
		c0.23-0.8,0.35-1.64,0.38-2.52c0.2-5.7-4.26-10.48-9.96-10.68c-5.7-0.2-10.48,4.26-10.68,9.96c-0.09,2.66,0.54,5.25,2.17,7.2
		c-4.17-3.67-6.73-9.12-6.52-15.1c0.37-10.61,9.27-18.91,19.88-18.54l2.24,0.09c6.05,0.21,10.97-4.72,11.43-10.44l-0.03,0.27
		c0.12-0.83,0.12-1.68,0.03-2.54c-0.6-5.67-5.67-9.78-11.34-9.19c-5.67,0.6-9.78,5.67-9.19,11.34c0.28,2.64,1.27,5.13,3.16,6.83
		c-4.64-3.06-7.93-8.09-8.56-14.05c-1.11-10.56,6.55-20.02,17.11-21.13l2.23-0.22c6.02-0.63,10.21-6.21,9.86-11.92l0,0.27
		c0-0.83-0.12-1.68-0.33-2.52c-1.38-5.53-6.98-8.9-12.51-7.52c-5.53,1.38-8.9,6.98-7.52,12.51c0.64,2.58,1.97,4.9,4.07,6.32
		c-5.02-2.38-8.98-6.91-10.43-12.72c-2.57-10.3,3.7-20.73,14-23.3l2.18-0.53c5.88-1.47,9.24-7.57,8.11-13.18l0.04,0.27
		c-0.11-0.83-0.35-1.64-0.68-2.45c-2.14-5.29-8.15-7.84-13.44-5.7c-5.29,2.14-7.84,8.15-5.7,13.44c1,2.46,2.63,4.58,4.91,5.69
		c-5.31-1.66-9.85-5.59-12.1-11.15c-3.98-9.84,0.78-21.05,10.62-25.02l2.09-0.82c5.62-2.27,8.1-8.78,6.2-14.18l0.08,0.26
		c-0.23-0.8-0.58-1.58-1.01-2.33c-2.85-4.94-9.16-6.63-14.1-3.78c-4.94,2.85-6.63,9.16-3.78,14.1c1.33,2.3,3.24,4.17,5.66,4.95
		c-5.48-0.9-10.53-4.17-13.53-9.35c-5.31-9.19-2.16-20.95,7.04-26.26l1.95-1.11c5.25-3.03,6.8-9.82,4.16-14.91l0.11,0.25
		c-0.34-0.76-0.79-1.48-1.33-2.17c-3.51-4.49-10-5.29-14.49-1.78s-5.29,10-1.78,14.49c1.64,2.09,3.79,3.68,6.29,4.12
		c-5.56-0.13-11.01-2.66-14.7-7.38c-6.54-8.37-5.05-20.45,3.31-26.98l1.78-1.37c4.77-3.73,5.37-10.67,2.05-15.34"/>
</g>
</svg>
