<?xml version="1.0" encoding="utf-8"?>
<!-- Generator: Adobe Illustrator 24.2.0, SVG Export Plug-In . SVG Version: 6.00 Build 0)  -->
<svg version="1.1" id="Capa_1_copia" xmlns="http://www.w3.org/2000/svg" xmlns:xlink="http://www.w3.org/1999/xlink" x="0px"
	 y="0px" viewBox="0 0 876 876" style="enable-background:new 0 0 876 876;" xml:space="preserve">
<style type="text/css">
	.st0{fill:#00091b;}
</style>
<path class="st0" d="M121.07,690.57c-9.48-9.97-17.47-23.22-18.9-37.37c66.72-32.09,132.84-94.25,166.95-133.98
	c-8.33-21.73-52.76-63.44-79.03-69.08l4.26-26.28c0,0,9.78-1.53,26.14-2.02c13.05,31.88,44.52,71.42,62.95,82.75
	c210.95-189.11,267.68-228.11,311.24-298.77C660.04,188,769.47,90.33,769.47,90.33S669.97,198.68,647.54,262.6
	c-66.16,41.48-125.43,86.23-328.23,280.52c9.99,19.19,47.18,53.4,78.05,68.69c-1.65,16.28-3.88,25.93-3.88,25.93l-26.51,2.37
	c-3.75-26.6-42.18-73.89-63.27-83.75c-42.06,31.19-108.77,92.71-145.54,156.97c-14.02-2.44-26.66-11.36-35.93-21.52"/>
</svg>
