<?xml version="1.0" encoding="utf-8"?>
<!-- Generator: Adobe Illustrator 24.2.0, SVG Export Plug-In . SVG Version: 6.00 Build 0)  -->
<svg version="1.1" id="Capa_1_copia" xmlns="http://www.w3.org/2000/svg" xmlns:xlink="http://www.w3.org/1999/xlink" x="0px"
	 y="0px" viewBox="0 0 876 876" style="enable-background:new 0 0 876 876;" xml:space="preserve">
<style type="text/css">
	.st0{fill:#00091b;}
</style>
<g>
	<circle class="st0" cx="446.77" cy="142.67" r="52.77"/>
	<path class="st0" d="M635.07,165.65c0-48.45-22.32-92.2-58.22-123.44c13.33,22.51,20.98,48.78,20.98,76.84
		c0,83.43-67.64,151.07-151.07,151.07c-83.43,0-151.07-67.64-151.07-151.07c0-32.13,10.04-61.91,27.14-86.4
		c-42.82,31.51-70.16,79.38-70.16,133c0,87.54,72.87,159.73,167.07,170.4l4.83,91.4l-73.24,6.89L361.49,480h65.87l19.36,365.97
		L464.09,480h69.03l9.07-63.62l-75.42,7.1l4.17-87.76C563.71,323.9,635.07,252.28,635.07,165.65z"/>
</g>
</svg>
