<?xml version="1.0" encoding="utf-8"?>
<!-- Generator: Adobe Illustrator 24.2.0, SVG Export Plug-In . SVG Version: 6.00 Build 0)  -->
<svg version="1.1" id="Capa_1_copia" xmlns="http://www.w3.org/2000/svg" xmlns:xlink="http://www.w3.org/1999/xlink" x="0px"
	 y="0px" viewBox="0 0 876 876" style="enable-background:new 0 0 876 876;" xml:space="preserve">
<style type="text/css">
	.st0{fill:#00aad7;}
</style>
<path class="st0" d="M434.48,632.28l36.79-42.97c-4.19-7.89-10.65-42.04-1.84-72.46c41.79-15.03,83.73-45.16,115.37-81.58
	c5.11,32.01-12.3,94.92-85.99,120.08c23.84,125.89,0,228.66,0,228.66c23.97-19.39,177.15-140.81,129.96-368.19
	c-14.02-21.23-39.64-41.76-64.12-51.55c19.78,2.45,33.34,7.91,48.19,18.89c-7.32-46.39-68.72-114.75-137.28-125.68
	c-10.55,8.29-17.33,19.08-20.34,36.91c-4.02-49.47,15.57-101.95,49.13-133.48c-45.86-12.42-65.68-58.37-69.47-98.3
	c-3.79,39.93-23.6,85.88-69.47,98.3c33.56,31.53,53.15,84.01,49.13,133.48c-3.01-17.83-9.79-28.63-20.34-36.91
	c-68.55,10.92-129.95,79.29-137.28,125.68c14.86-10.98,28.42-16.44,48.19-18.89c-24.48,9.79-50.1,30.32-64.12,51.55
	C193.81,643.2,346.99,764.61,370.96,784.01c0,0-23.84-102.77,0-228.66c-73.68-25.16-91.1-88.07-85.99-120.08
	c31.64,36.41,73.58,66.55,115.37,81.58c8.81,30.42,2.34,64.57-1.84,72.46l36.79,42.97"/>
</svg>
