<?xml version="1.0" encoding="utf-8"?>
<!-- Generator: Adobe Illustrator 28.4.1, SVG Export Plug-In . SVG Version: 6.00 Build 0)  -->
<svg version="1.1" id="Layer_1" xmlns="http://www.w3.org/2000/svg" xmlns:xlink="http://www.w3.org/1999/xlink" x="0px" y="0px"
	 viewBox="0 0 402.75 441.5" style="enable-background:new 0 0 402.75 441.5;" xml:space="preserve">
<style type="text/css">
	.st0{fill:#FFFFFF;}
	.st1{clip-path:url(#SVGID_00000128462057785933181460000015342769380057324987_);fill:#00A0CD;}
	.st2{clip-path:url(#SVGID_00000128462057785933181460000015342769380057324987_);}
	.st3{fill:#00A0CD;}
</style>
<g>
	<g>
		<path class="st0" d="M192.92,402.72C106.65,365.75,73.46,292.86,72.09,289.78l-0.3-0.67l-0.23-0.69
			C59.41,251.97,47.93,92.79,47.45,86.03l-0.8-11.16l10.45-4.02c46.25-17.79,93.94-26.86,141.75-26.97
			c47.86,0.11,95.57,9.19,141.82,26.97l10.45,4.02l-0.8,11.16c-0.48,6.76-11.97,165.98-24.11,202.39l-0.23,0.69l-0.3,0.67
			c-1.37,3.08-34.58,75.97-120.84,112.94l-5.95,2.55L192.92,402.72z"/>
		<path d="M198.85,46c47.61,0.11,95.05,9.14,141.05,26.83l8.98,3.45l-0.68,9.59c-0.48,6.75-11.94,165.67-24.01,201.87l-0.2,0.59
			l-0.25,0.57c-1.36,3.05-34.22,75.2-119.73,111.85l-5.12,2.19l-5.12-2.19c-85.51-36.65-118.37-108.8-119.73-111.85l-0.25-0.57
			l-0.2-0.59C61.51,251.55,50.05,92.62,49.57,85.88l-0.68-9.59l8.98-3.45C103.86,55.14,151.29,46.11,198.85,46 M198.85,41.75
			L198.85,41.75c-48.08,0.11-96.03,9.23-142.51,27.11l-8.98,3.45l-2.94,1.13l0.22,3.14l0.68,9.59
			c0.48,6.77,11.98,166.2,24.22,202.91l0.2,0.6l0.06,0.19l0.08,0.19l0.25,0.57c1.38,3.12,34.92,76.74,121.94,114.03l5.12,2.19
			l1.68,0.72l1.68-0.72l5.12-2.19c87.03-37.3,120.56-110.92,121.94-114.03l0.25-0.57l0.08-0.19l0.06-0.19l0.2-0.59
			c12.24-36.71,23.73-196.15,24.22-202.92l0.68-9.59l0.22-3.14l-2.94-1.13l-8.98-3.45C294.93,50.98,246.97,41.86,198.85,41.75
			L198.85,41.75L198.85,41.75z"/>
	</g>
	<g>
		<defs>
			<path id="SVGID_1_" d="M198.88,58.99c-39.64,0.09-86.07,6.63-136.36,25.97c0,0,11.69,163.63,23.38,198.69
				c0,0,31.17,70.13,112.98,105.19c81.81-35.06,112.98-105.19,112.98-105.19c11.69-35.06,23.38-198.69,23.38-198.69
				C284.95,65.61,238.51,59.08,198.88,58.99z"/>
		</defs>
		<clipPath id="SVGID_00000023251578421446048220000015283697482887009198_">
			<use xlink:href="#SVGID_1_"  style="overflow:visible;"/>
		</clipPath>
		
			<rect x="39.14" y="42.1" style="clip-path:url(#SVGID_00000023251578421446048220000015283697482887009198_);fill:#00A0CD;" width="159.73" height="184.41"/>
		<g style="clip-path:url(#SVGID_00000023251578421446048220000015283697482887009198_);">
			<rect x="198.88" y="42.1" width="159.73" height="184.41"/>
		</g>
		<g style="clip-path:url(#SVGID_00000023251578421446048220000015283697482887009198_);">
			<rect x="39.14" y="225.2" width="159.73" height="184.41"/>
		</g>
		
			<rect x="198.88" y="225.2" style="clip-path:url(#SVGID_00000023251578421446048220000015283697482887009198_);fill:#00A0CD;" width="159.73" height="184.41"/>
	</g>
	<path d="M175.21,121.57c-22.9,2.74-43.61,10.31-65.92,21.58c-0.74-7.47-1.37-14.3-2.8-22.24c16.8-2.33,38,3.4,38,3.4
		s-17.98-11.08-44.45-10.43c0.95,9.55,0.75,30.31-1.02,46.21c22.56-14.93,45.81-28.93,63.21-33.04c-5.52,4.5-17.48,16.1-28.79,28.97
		c-0.99,9.87-11.02,18.45-21.98,10.29c3.59,9.72,4.62,17.48,5.71,25C131.66,169.56,158.18,135.55,175.21,121.57z"/>
	<path class="st3" d="M265.7,172.47l4.98-5.82c-0.57-1.07-1.44-5.69-0.25-9.81c5.66-2.04,11.34-6.11,15.62-11.04
		c0.69,4.33-1.67,12.85-11.64,16.26c3.23,17.04,0,30.96,0,30.96c3.25-2.63,23.98-19.06,17.6-49.85c-1.9-2.87-5.37-5.65-8.68-6.98
		c2.68,0.33,4.51,1.07,6.52,2.56c-0.99-6.28-9.3-15.54-18.59-17.02c-1.43,1.12-2.35,2.58-2.75,5c-0.54-6.7,2.11-13.8,6.65-18.07
		c-6.21-1.68-8.89-7.9-9.41-13.31c-0.51,5.41-3.2,11.63-9.41,13.31c4.54,4.27,7.2,11.37,6.65,18.07c-0.41-2.41-1.33-3.88-2.75-5
		c-9.28,1.48-17.59,10.74-18.59,17.02c2.01-1.49,3.85-2.23,6.52-2.56c-3.31,1.33-6.78,4.11-8.68,6.98
		c-6.39,30.79,14.35,47.22,17.6,49.85c0,0-3.23-13.91,0-30.96c-9.98-3.41-12.33-11.92-11.64-16.26c4.28,4.93,9.96,9.01,15.62,11.04
		c1.19,4.12,0.32,8.74-0.25,9.81l4.98,5.82"/>
	<path class="st3" d="M139.17,262.05c2.89-4,5.47-6.15,9.04-7.57c-0.11,7.29-1.58,45.08-16.42,40.84
		c-2.64-18.14-7.69-28.05-9.47-31.18c2.83,0,5.97,1.05,9.79,3.18c-4.62-4.32-9.92-8.38-16.21-9.81c7.88,9.63,10.85,31.72,8.02,41.99
		c-0.55,1.98,20.11,14.45,20.99,29.1v3.98h8.22v-3.98c0.87-14.65,21.53-27.12,20.99-29.1c-2.83-10.27,0.14-32.36,8.02-41.99
		c-6.29,1.43-11.59,5.49-16.21,9.81c3.82-2.14,6.96-3.18,9.79-3.18c-1.78,3.14-6.83,13.04-9.47,31.18
		c-14.84,4.24-15.01-53.24-15.01-53.24S141.5,252.21,139.17,262.05z"/>
	<g>
		<polygon points="222.39,334.44 268.87,301.16 251.74,296.37 276.04,281.13 260.6,275.29 290.71,241.16 241.6,276.92 
			256.49,281.48 230.93,299.29 248.09,305.2 		"/>
	</g>
</g>
</svg>
