<?xml version="1.0" encoding="utf-8"?>
<!-- Generator: Adobe Illustrator 28.4.1, SVG Export Plug-In . SVG Version: 6.00 Build 0)  -->
<svg version="1.1" id="Layer_1" fill="#00091b" xmlns="http://www.w3.org/2000/svg" xmlns:xlink="http://www.w3.org/1999/xlink" x="0px" y="0px"
	 viewBox="0 0 625 540" style="enable-background:new 0 0 625 540;" xml:space="preserve">
<g>
	<g>
		<path d="M92.6,259.41C92.6,147.07,183.67,56,296.01,56s203.41,91.07,203.41,203.41s-91.07,203.41-203.41,203.41
			S92.6,371.75,92.6,259.41z M452.81,163.9c-0.28-0.44-0.62-0.85-1.02-1.24c-2.58-2.49-6.69-2.42-9.18,0.16
			c-2.49,2.58-2.42,6.69,0.16,9.18c1.2,1.16,2.68,1.96,4.28,2.01c-3.47,0.4-7.09-0.69-9.8-3.31c-4.8-4.64-4.93-12.29-0.3-17.09
			l0.99-1.01c2.65-2.74,2.41-7.11-0.07-9.73l0.11,0.13c-0.34-0.4-0.73-0.76-1.18-1.08c-2.9-2.11-6.96-1.46-9.06,1.44
			c-2.11,2.9-1.46,6.96,1.44,9.06c1.35,0.98,2.93,1.57,4.52,1.4c-3.38,0.88-7.12,0.3-10.16-1.91c-5.4-3.92-6.6-11.48-2.67-16.88
			l0.84-1.13c2.24-3.08,1.39-7.38-1.42-9.63l0.13,0.11c-0.39-0.35-0.83-0.65-1.32-0.91c-3.16-1.68-7.09-0.48-8.78,2.68
			c-1.68,3.16-0.48,7.09,2.68,8.78c1.48,0.78,3.12,1.14,4.67,0.76c-3.23,1.34-7,1.29-10.33-0.48c-5.89-3.13-8.13-10.45-5-16.34
			l0.67-1.24c1.79-3.36,0.35-7.5-2.75-9.33l0.14,0.09c-0.43-0.29-0.92-0.53-1.43-0.72c-3.37-1.23-7.09,0.51-8.32,3.88
			s0.51,7.09,3.88,8.32c1.57,0.57,3.25,0.7,4.73,0.1c-3.01,1.78-6.76,2.25-10.3,0.96c-6.27-2.28-9.51-9.22-7.22-15.49l0.49-1.32
			c1.3-3.58-0.69-7.48-4.02-8.86l0.15,0.07c-0.47-0.23-0.98-0.4-1.52-0.51c-3.51-0.75-6.95,1.49-7.7,5c-0.75,3.51,1.49,6.95,5,7.7
			c1.63,0.35,3.31,0.24,4.69-0.56c-2.73,2.18-6.38,3.17-10.06,2.39c-6.53-1.39-10.7-7.8-9.31-14.33l0.3-1.38
			c0.79-3.72-1.73-7.31-5.21-8.21l0.16,0.05c-0.5-0.16-1.03-0.26-1.57-0.29c-3.58-0.25-6.68,2.45-6.93,6.02s2.45,6.68,6.02,6.93
			c1.67,0.12,3.31-0.22,4.57-1.21c-2.4,2.54-5.87,4.03-9.63,3.76c-6.66-0.47-11.68-6.24-11.21-12.9l0.11-1.41
			c0.27-3.8-2.73-7-6.31-7.41l0.17,0.03c-0.52-0.09-1.05-0.11-1.6-0.07c-3.58,0.25-6.27,3.35-6.02,6.93
			c0.25,3.58,3.35,6.27,6.93,6.02c1.67-0.12,3.25-0.68,4.36-1.83c-2.02,2.85-5.26,4.8-9.02,5.07c-6.66,0.47-12.43-4.55-12.9-11.21
			l-0.09-1.41c-0.27-3.8-3.67-6.55-7.28-6.46l0.17,0c-0.52-0.02-1.06,0.04-1.59,0.15c-3.51,0.75-5.74,4.19-5,7.7
			c0.75,3.51,4.19,5.74,7.7,5c1.63-0.35,3.12-1.13,4.06-2.42c-1.61,3.1-4.54,5.49-8.22,6.27c-6.53,1.39-12.95-2.78-14.33-9.31
			l-0.28-1.38c-0.79-3.72-4.55-5.97-8.1-5.38l0.17-0.02c-0.52,0.05-1.04,0.18-1.56,0.37c-3.37,1.23-5.1,4.95-3.88,8.32
			s4.95,5.1,8.32,3.88c1.57-0.57,2.94-1.55,3.68-2.96c-1.16,3.3-3.73,6.07-7.27,7.36c-6.27,2.28-13.21-0.95-15.49-7.22l-0.47-1.33
			c-1.3-3.58-5.34-5.28-8.77-4.2l0.16-0.04c-0.51,0.13-1.01,0.33-1.49,0.58c-3.16,1.68-4.37,5.61-2.68,8.78s5.61,4.37,8.78,2.68
			c1.48-0.78,2.69-1.95,3.24-3.45c-0.69,3.43-2.85,6.53-6.17,8.3c-5.89,3.13-13.21,0.9-16.34-5l-0.65-1.25
			c-1.79-3.36-6.02-4.49-9.27-2.94l0.16-0.07c-0.49,0.2-0.95,0.46-1.39,0.79c-2.9,2.11-3.54,6.16-1.44,9.06
			c2.11,2.9,6.16,3.54,9.06,1.44c1.35-0.98,2.39-2.3,2.72-3.86c-0.21,3.49-1.91,6.86-4.96,9.07c-5.4,3.92-12.96,2.73-16.88-2.67
			l-0.82-1.15c-2.24-3.08-6.59-3.61-9.59-1.62l0.15-0.09c-0.45,0.26-0.88,0.59-1.27,0.97c-2.58,2.49-2.65,6.6-0.16,9.18
			s6.6,2.65,9.18,0.16c1.2-1.16,2.05-2.61,2.16-4.21c0.28,3.48-0.94,7.06-3.65,9.68c-4.8,4.64-12.45,4.5-17.09-0.3l-0.97-1.02
			c-2.65-2.74-7.02-2.65-9.73-0.27l0.13-0.11c-0.41,0.32-0.79,0.71-1.12,1.14c-2.21,2.82-1.71,6.9,1.12,9.11
			c2.82,2.21,6.9,1.71,9.11-1.12c1.03-1.32,1.67-2.87,1.55-4.46c0.76,3.41,0.05,7.12-2.27,10.09c-4.11,5.26-11.7,6.19-16.96,2.08
			l-1.1-0.88c-3-2.34-7.33-1.65-9.67,1.08l0.12-0.12c-0.36,0.38-0.68,0.81-0.95,1.28c-1.79,3.1-0.73,7.07,2.38,8.86
			s7.07,0.73,8.86-2.38c0.84-1.45,1.25-3.08,0.92-4.64c1.23,3.27,1.04,7.05-0.84,10.31c-3.34,5.78-10.73,7.76-16.51,4.42l-1.22-0.71
			c-3.3-1.9-7.48-0.62-9.42,2.42l0.1-0.14c-0.31,0.42-0.56,0.9-0.77,1.4c-1.34,3.32,0.26,7.1,3.59,8.45s7.1-0.26,8.45-3.59
			c0.63-1.55,0.81-3.22,0.26-4.72c1.67,3.07,2.01,6.83,0.6,10.32c-2.5,6.19-9.54,9.18-15.73,6.68l-1.3-0.54
			c-3.53-1.43-7.5,0.43-9,3.71l0.08-0.15c-0.25,0.46-0.43,0.97-0.56,1.5c-0.87,3.48,1.25,7,4.73,7.87s7-1.25,7.87-4.73
			c0.4-1.62,0.35-3.3-0.4-4.71c2.09,2.8,2.95,6.48,2.03,10.14c-1.61,6.48-8.17,10.42-14.65,8.8l-1.37-0.35
			c-3.69-0.92-7.36,1.47-8.39,4.92l0.06-0.16c-0.18,0.49-0.29,1.02-0.35,1.56c-0.37,3.56,2.21,6.76,5.78,7.13
			c3.56,0.37,6.76-2.21,7.13-5.78c0.17-1.66-0.11-3.32-1.05-4.61c2.46,2.49,3.82,6.01,3.43,9.76c-0.7,6.64-6.64,11.45-13.28,10.76
			l-1.4-0.16c-3.79-0.4-7.09,2.48-7.62,6.04l0.03-0.17c-0.11,0.51-0.15,1.05-0.13,1.59c0.13,3.58,3.13,6.38,6.71,6.26
			c3.58-0.13,6.38-3.13,6.26-6.71c-0.06-1.67-0.57-3.27-1.68-4.42c2.78,2.12,4.62,5.42,4.75,9.19c0.23,6.67-4.99,12.27-11.66,12.5
			l-1.41,0.04c-3.81,0.13-6.67,3.44-6.71,7.05l0.01-0.17c-0.04,0.52,0,1.06,0.1,1.6c0.62,3.53,3.99,5.89,7.52,5.26
			c3.53-0.62,5.89-3.99,5.26-7.52c-0.29-1.65-1.02-3.16-2.28-4.14c3.05,1.71,5.33,4.73,5.98,8.44c1.16,6.57-3.23,12.84-9.8,14
			l-1.39,0.23c-3.75,0.66-6.13,4.34-5.66,7.91l-0.01-0.17c0.04,0.52,0.15,1.05,0.32,1.57c1.11,3.41,4.77,5.27,8.18,4.17
			s5.27-4.77,4.17-8.18c-0.52-1.59-1.45-2.99-2.83-3.79c3.25,1.27,5.93,3.94,7.1,7.52c2.06,6.35-1.41,13.17-7.76,15.23l-1.34,0.43
			c-3.62,1.18-5.47,5.15-4.51,8.62l-0.04-0.17c0.11,0.51,0.29,1.02,0.53,1.51c1.57,3.22,5.46,4.56,8.68,2.99
			c3.22-1.57,4.56-5.46,2.99-8.68c-0.73-1.5-1.85-2.76-3.33-3.35c3.4,0.81,6.42,3.07,8.08,6.46c2.93,6,0.43,13.23-5.56,16.16
			l-1.27,0.61c-3.42,1.67-4.7,5.86-3.26,9.17l-0.06-0.16c0.18,0.49,0.43,0.97,0.74,1.42c2,2.97,6.04,3.76,9.01,1.75
			c2.97-2,3.76-6.04,1.75-9.01c-0.93-1.39-2.22-2.47-3.77-2.86c3.48,0.33,6.79,2.15,8.9,5.27c3.73,5.53,2.27,13.04-3.26,16.78
			l-1.17,0.78c-3.16,2.13-3.83,6.46-1.96,9.53l-0.08-0.15c0.25,0.46,0.56,0.9,0.93,1.3c2.4,2.66,6.5,2.88,9.16,0.48
			c2.66-2.4,2.88-6.5,0.48-9.16c-1.12-1.24-2.54-2.14-4.13-2.31c3.49-0.16,7.02,1.18,9.54,3.98c4.47,4.96,4.07,12.6-0.89,17.07
			l-1.05,0.94c-2.83,2.55-2.9,6.93-0.61,9.71l-0.1-0.14c0.31,0.42,0.68,0.81,1.1,1.16c2.75,2.3,6.84,1.95,9.14-0.8
			c2.3-2.75,1.95-6.84-0.8-9.14c-1.28-1.07-2.81-1.77-4.41-1.71c3.43-0.64,7.12,0.2,10.01,2.62c5.11,4.29,5.78,11.91,1.49,17.03
			l-0.91,1.07c-2.45,2.92-1.91,7.26,0.75,9.7l-0.12-0.12c0.36,0.38,0.79,0.71,1.25,1c3.04,1.9,7.04,0.97,8.94-2.06
			s0.97-7.04-2.06-8.94c-1.42-0.89-3.03-1.36-4.6-1.08c3.31-1.12,7.08-0.8,10.27,1.2c5.66,3.54,7.38,10.99,3.84,16.65l-0.76,1.19
			c-2.02,3.23-0.88,7.46,2.09,9.5l-0.14-0.1c0.41,0.32,0.88,0.59,1.38,0.81c3.27,1.46,7.11-0.01,8.57-3.29
			c1.46-3.27-0.01-7.11-3.29-8.57c-1.53-0.68-3.19-0.92-4.71-0.43c3.12-1.57,6.9-1.77,10.34-0.24c6.1,2.71,8.84,9.86,6.12,15.96
			l-0.58,1.28c-1.55,3.48,0.17,7.51,3.39,9.12l-0.15-0.08c0.45,0.26,0.95,0.46,1.48,0.61c3.44,0.99,7.04-1,8.03-4.45
			c0.99-3.44-1-7.04-4.45-8.03c-1.61-0.46-3.29-0.47-4.72,0.23c2.88-1.99,6.58-2.72,10.2-1.68c6.42,1.84,10.13,8.53,8.29,14.95
			l-0.4,1.35c-1.05,3.66,1.21,7.41,4.63,8.56l-0.16-0.06c0.49,0.2,1.01,0.33,1.55,0.4c3.55,0.5,6.83-1.97,7.33-5.52
			c0.5-3.55-1.97-6.83-5.52-7.33c-1.65-0.23-3.32-0.01-4.64,0.89c2.57-2.37,6.14-3.61,9.87-3.08c6.61,0.93,11.21,7.04,10.29,13.65
			l-0.21,1.39c-0.53,3.77,2.23,7.17,5.77,7.83l-0.17-0.04c0.51,0.13,1.04,0.18,1.59,0.18c3.58,0,6.49-2.91,6.49-6.49
			s-2.91-6.49-6.49-6.49c-1.67,0-3.29,0.46-4.48,1.52c2.22-2.7,5.58-4.43,9.35-4.43c6.67,0,12.08,5.41,12.08,12.08l-0.01,1.41
			c0,3.81,3.21,6.79,6.81,6.95l-0.17-0.01c0.52,0.06,1.06,0.04,1.6-0.04c3.55-0.5,6.02-3.78,5.52-7.33
			c-0.5-3.55-3.78-6.02-7.33-5.52c-1.65,0.23-3.19,0.91-4.22,2.13c1.82-2.98,4.91-5.16,8.64-5.68c6.61-0.93,12.72,3.68,13.65,10.29
			l0.19,1.4c0.53,3.77,4.12,6.28,7.71,5.94l-0.17,0.01c0.52-0.02,1.05-0.11,1.58-0.26c3.44-0.99,5.44-4.58,4.45-8.03
			c-0.99-3.44-4.58-5.44-8.03-4.45c-1.61,0.46-3.04,1.34-3.88,2.7c1.39-3.21,4.14-5.79,7.76-6.83c6.42-1.84,13.11,1.87,14.95,8.29
			l0.38,1.36c1.05,3.66,4.96,5.64,8.46,4.81l-0.17,0.03c0.52-0.09,1.03-0.26,1.53-0.48c3.27-1.46,4.75-5.29,3.29-8.57
			c-1.46-3.27-5.29-4.75-8.57-3.29c-1.53,0.68-2.82,1.75-3.47,3.21c0.93-3.37,3.3-6.31,6.74-7.85c6.1-2.71,13.24,0.03,15.96,6.12
			l0.56,1.29c1.55,3.48,5.69,4.9,9.05,3.58l-0.16,0.06c0.5-0.16,0.98-0.4,1.44-0.69c3.04-1.9,3.96-5.9,2.06-8.94
			c-1.9-3.04-5.9-3.96-8.94-2.06c-1.42,0.89-2.55,2.13-2.99,3.66c0.45-3.47,2.39-6.71,5.58-8.71c5.66-3.54,13.12-1.82,16.65,3.84
			l0.74,1.2c2.02,3.23,6.32,4.06,9.46,2.29l-0.15,0.08c0.47-0.23,0.92-0.53,1.33-0.88c2.75-2.3,3.1-6.4,0.8-9.14
			c-2.3-2.75-6.4-3.1-9.14-0.8c-1.28,1.07-2.23,2.46-2.45,4.04c-0.04-3.49,1.43-6.98,4.31-9.4c5.11-4.29,12.74-3.62,17.03,1.49
			l0.9,1.09c2.45,2.92,6.82,3.14,9.68,0.95l-0.14,0.1c0.43-0.29,0.83-0.65,1.2-1.06c2.4-2.66,2.18-6.77-0.48-9.16
			c-2.66-2.4-6.77-2.18-9.16,0.48c-1.12,1.24-1.86,2.75-1.86,4.35c-0.52-3.45,0.44-7.11,2.96-9.91c4.47-4.96,12.11-5.36,17.07-0.89
			l1.04,0.95c2.83,2.55,7.19,2.16,9.72-0.41l-0.12,0.12c0.39-0.35,0.73-0.76,1.04-1.21c2-2.97,1.22-7-1.75-9.01
			c-2.97-2-7-1.22-9.01,1.75c-0.93,1.39-1.46,2.98-1.24,4.56c-1-3.35-0.55-7.1,1.56-10.22c3.73-5.53,11.24-6.99,16.78-3.26l1.16,0.8
			c3.16,2.13,7.42,1.14,9.57-1.76l-0.11,0.13c0.34-0.4,0.62-0.86,0.86-1.35c1.57-3.22,0.23-7.11-2.99-8.68s-7.11-0.23-8.68,2.99
			c-0.73,1.5-1.03,3.16-0.59,4.69c-1.46-3.18-1.53-6.96,0.12-10.34c2.93-6,10.16-8.49,16.16-5.56l1.26,0.63
			c3.42,1.67,7.51,0.09,9.23-3.07l-0.09,0.15c0.28-0.44,0.5-0.93,0.67-1.45c1.11-3.41-0.76-7.07-4.17-8.18
			c-3.41-1.11-7.07,0.76-8.18,4.17c-0.52,1.59-0.58,3.27,0.07,4.73c-1.88-2.94-2.49-6.67-1.32-10.26c2.06-6.35,8.88-9.82,15.23-7.76
			l1.34,0.45c3.62,1.18,7.45-0.95,8.71-4.33l-0.07,0.16c0.21-0.48,0.36-0.99,0.46-1.53c0.62-3.53-1.73-6.89-5.26-7.52
			s-6.9,1.73-7.52,5.26c-0.29,1.65-0.12,3.32,0.72,4.67c-2.28-2.65-3.39-6.26-2.74-9.97c1.16-6.57,7.43-10.96,14-9.8l1.39,0.26
			c3.75,0.66,7.24-1.98,8.03-5.5l-0.04,0.16c0.15-0.5,0.22-1.03,0.24-1.58c0.13-3.58-2.68-6.59-6.26-6.71
			c-3.58-0.13-6.59,2.68-6.71,6.26c-0.06,1.67,0.34,3.3,1.37,4.53c-2.62-2.31-4.23-5.73-4.1-9.5c0.23-6.67,5.83-11.89,12.5-11.66
			l1.41,0.06c3.81,0.13,6.9-2.97,7.18-6.56l-0.02,0.17c0.07-0.52,0.07-1.05,0.02-1.6c-0.37-3.56-3.57-6.15-7.13-5.78
			c-3.56,0.37-6.15,3.57-5.78,7.13c0.17,1.66,0.8,3.22,1.98,4.29c-2.92-1.92-4.99-5.09-5.38-8.83c-0.7-6.64,4.12-12.58,10.76-13.28
			l1.4-0.14c3.79-0.4,6.42-3.9,6.2-7.5l0,0.17c0-0.52-0.07-1.05-0.21-1.59c-0.87-3.48-4.39-5.59-7.87-4.73
			c-3.48,0.87-5.59,4.39-4.73,7.87c0.4,1.62,1.24,3.08,2.56,3.97c-3.16-1.5-5.64-4.34-6.56-8c-1.61-6.48,2.33-13.03,8.8-14.65
			l1.37-0.33c3.69-0.92,5.81-4.76,5.1-8.29l0.03,0.17c-0.07-0.52-0.22-1.03-0.43-1.54c-1.34-3.32-5.12-4.93-8.45-3.59
			s-4.93,5.12-3.59,8.45c0.63,1.55,1.65,2.88,3.09,3.58c-3.34-1.04-6.19-3.52-7.61-7.01c-2.5-6.19,0.49-13.23,6.68-15.73l1.31-0.52
			c3.53-1.43,5.09-5.52,3.9-8.92l0.05,0.16c-0.14-0.5-0.36-0.99-0.64-1.47c-1.79-3.1-5.76-4.17-8.86-2.38
			c-3.1,1.79-4.17,5.76-2.38,8.86c0.84,1.45,2.04,2.62,3.56,3.11c-3.45-0.57-6.62-2.62-8.51-5.88c-3.34-5.78-1.36-13.17,4.42-16.51
			l1.23-0.7c3.3-1.9,4.27-6.17,2.62-9.37l0.07,0.15c-0.21-0.48-0.5-0.93-0.83-1.36c-2.21-2.82-6.28-3.32-9.11-1.12
			c-2.82,2.21-3.32,6.28-1.12,9.11c1.03,1.32,2.38,2.31,3.96,2.59c-3.49-0.08-6.92-1.67-9.24-4.64c-4.11-5.26-3.18-12.85,2.08-16.96
			l1.12-0.86c3-2.34,3.37-6.71,1.29-9.64"/>
	</g>
	<path d="M258.76,250.72c3.48-8.88,12.1-15.18,22.21-15.18c13.18,0,23.86,10.68,23.86,23.86s-10.68,23.86-23.86,23.86
		c-10.11,0-18.73-6.3-22.21-15.17c3.93,16.67,18.87,29.09,36.74,29.09c20.87,0,37.78-16.91,37.78-37.78
		c0-20.86-16.91-37.78-37.78-37.78C277.62,221.63,262.68,234.05,258.76,250.72z"/>
</g>
</svg>
