<?xml version="1.0" encoding="utf-8"?>
<!-- Generator: Adobe Illustrator 28.4.1, SVG Export Plug-In . SVG Version: 6.00 Build 0)  -->
<svg version="1.1" id="Layer_1" fill="#00091b" xmlns="http://www.w3.org/2000/svg" xmlns:xlink="http://www.w3.org/1999/xlink" x="0px" y="0px"
	 viewBox="0 0 625 540" style="enable-background:new 0 0 625 540;" xml:space="preserve">
<path d="M538.31,117.58c-121.91,14.56-232.15,54.9-350.93,114.86c-3.93-39.75-7.29-76.13-14.92-118.4
	c89.42-12.38,202.31,18.09,202.31,18.09s-95.71-59-236.63-55.55c5.08,50.86,4.01,161.34-5.42,246.02
	c120.12-79.47,243.89-154,336.52-175.91C439.89,170.65,376.17,232.4,316,300.92c-5.29,52.52-58.64,98.2-117.03,54.79
	c19.09,51.74,24.58,93.07,30.37,133.08C306.46,373.05,447.67,191.99,538.31,117.58z"/>
</svg>
