<?xml version="1.0" encoding="utf-8"?>
<!-- Generator: Adobe Illustrator 24.2.0, SVG Export Plug-In . SVG Version: 6.00 Build 0)  -->
<svg version="1.1" id="Capa_1" xmlns="http://www.w3.org/2000/svg" xmlns:xlink="http://www.w3.org/1999/xlink" x="0px" y="0px"
	 viewBox="0 0 792 612" style="enable-background:new 0 0 792 612;" xml:space="preserve">
<g>
	<path d="M560.9,203.1c-91.35,10.83-173.95,40.83-262.96,85.43c-2.94-29.56-5.46-56.62-11.18-88.07
		c67-9.21,151.59,13.46,151.59,13.46s-71.72-43.88-177.31-41.31c3.81,37.83,3,120-4.06,182.98
		c90.01-59.1,182.75-114.54,252.16-130.84c-22,17.82-69.74,63.75-114.83,114.71c-3.97,39.07-43.94,73.04-87.69,40.75
		c14.3,38.48,18.42,69.22,22.76,98.98C387.17,393.11,492.98,258.44,560.9,203.1z"/>
	<path d="M145.18,306c0-138.52,112.3-250.82,250.82-250.82S646.82,167.48,646.82,306S534.52,556.82,396,556.82
		S145.18,444.52,145.18,306z M589.34,188.23c-0.34-0.55-0.77-1.05-1.25-1.52c-3.18-3.07-8.24-2.98-11.31,0.2
		c-3.07,3.18-2.98,8.24,0.2,11.31c1.48,1.43,3.31,2.41,5.28,2.48c-4.28,0.5-8.74-0.85-12.08-4.08c-5.92-5.72-6.08-15.15-0.37-21.07
		l1.22-1.24c3.26-3.38,2.97-8.77-0.08-12l0.14,0.16c-0.41-0.5-0.91-0.94-1.45-1.33c-3.58-2.6-8.58-1.8-11.18,1.77
		c-2.6,3.58-1.81,8.58,1.77,11.18c1.67,1.21,3.61,1.93,5.57,1.72c-4.17,1.09-8.77,0.37-12.53-2.36c-6.66-4.84-8.13-14.16-3.3-20.81
		l1.03-1.4c2.76-3.8,1.72-9.1-1.75-11.87l0.16,0.14c-0.48-0.43-1.03-0.8-1.62-1.12c-3.9-2.07-8.75-0.59-10.82,3.31
		c-2.07,3.9-0.59,8.75,3.31,10.82c1.82,0.97,3.85,1.41,5.75,0.93c-3.98,1.66-8.64,1.59-12.74-0.59
		c-7.27-3.86-10.02-12.89-6.16-20.15l0.83-1.53c2.2-4.15,0.44-9.25-3.39-11.51l0.18,0.11c-0.53-0.36-1.13-0.65-1.76-0.88
		c-4.15-1.51-8.74,0.63-10.26,4.78c-1.51,4.15,0.63,8.74,4.78,10.26c1.94,0.7,4,0.86,5.83,0.12c-3.71,2.2-8.33,2.78-12.7,1.19
		c-7.73-2.81-11.72-11.37-8.91-19.1l0.61-1.63c1.61-4.41-0.86-9.22-4.96-10.93l0.19,0.09c-0.58-0.28-1.21-0.49-1.87-0.63
		c-4.32-0.92-8.57,1.84-9.49,6.16s1.84,8.57,6.16,9.49c2.02,0.43,4.08,0.29,5.79-0.69c-3.37,2.69-7.86,3.91-12.41,2.94
		c-8.05-1.71-13.19-9.62-11.48-17.67l0.37-1.7c0.98-4.59-2.13-9.01-6.43-10.13l0.2,0.06c-0.61-0.2-1.26-0.31-1.94-0.36
		c-4.41-0.31-8.23,3.02-8.54,7.42s3.02,8.23,7.42,8.54c2.05,0.14,4.09-0.28,5.64-1.49c-2.96,3.13-7.24,4.96-11.88,4.64
		c-8.21-0.57-14.4-7.69-13.83-15.9l0.13-1.73c0.33-4.68-3.36-8.63-7.78-9.14l0.21,0.03c-0.64-0.11-1.3-0.14-1.97-0.09
		c-4.41,0.31-7.73,4.13-7.42,8.54c0.31,4.41,4.13,7.73,8.54,7.42c2.05-0.14,4.01-0.84,5.37-2.26c-2.49,3.51-6.48,5.92-11.12,6.25
		c-8.21,0.57-15.33-5.62-15.9-13.83l-0.11-1.73c-0.33-4.68-4.53-8.08-8.97-7.97l0.21,0c-0.65-0.02-1.3,0.05-1.96,0.19
		c-4.32,0.92-7.08,5.17-6.16,9.49c0.92,4.32,5.17,7.08,9.49,6.16c2.01-0.43,3.85-1.39,5.01-2.99c-1.98,3.83-5.59,6.77-10.14,7.73
		c-8.05,1.71-15.96-3.43-17.67-11.48l-0.35-1.7c-0.98-4.59-5.61-7.37-9.99-6.64l0.21-0.03c-0.64,0.07-1.28,0.23-1.92,0.46
		c-4.15,1.51-6.29,6.1-4.78,10.26c1.51,4.15,6.1,6.29,10.26,4.78c1.94-0.7,3.62-1.91,4.54-3.65c-1.43,4.07-4.6,7.48-8.96,9.07
		c-7.73,2.81-16.28-1.17-19.1-8.91l-0.58-1.64c-1.61-4.41-6.58-6.51-10.82-5.18l0.2-0.05c-0.63,0.16-1.24,0.4-1.84,0.72
		c-3.9,2.07-5.38,6.92-3.31,10.82s6.92,5.38,10.82,3.31c1.82-0.97,3.32-2.4,3.99-4.25c-0.85,4.22-3.51,8.05-7.61,10.23
		c-7.27,3.86-16.29,1.11-20.15-6.16l-0.8-1.54c-2.2-4.15-7.42-5.53-11.44-3.63l0.19-0.08c-0.6,0.24-1.17,0.57-1.72,0.97
		c-3.58,2.6-4.37,7.6-1.77,11.18c2.6,3.58,7.6,4.37,11.18,1.77c1.67-1.21,2.95-2.84,3.36-4.76c-0.25,4.3-2.36,8.46-6.12,11.19
		c-6.66,4.84-15.98,3.36-20.81-3.3l-1.01-1.41c-2.76-3.8-8.12-4.45-11.83-2l0.18-0.11c-0.56,0.32-1.08,0.73-1.57,1.2
		c-3.18,3.07-3.27,8.14-0.2,11.31s8.14,3.27,11.31,0.2c1.48-1.43,2.53-3.22,2.66-5.19c0.35,4.29-1.16,8.71-4.5,11.93
		c-5.92,5.72-15.35,5.55-21.07-0.37l-1.2-1.26c-3.26-3.38-8.66-3.27-11.99-0.33l0.16-0.13c-0.51,0.4-0.97,0.87-1.38,1.4
		c-2.72,3.48-2.1,8.51,1.38,11.23c3.48,2.72,8.51,2.1,11.23-1.38c1.27-1.62,2.06-3.54,1.92-5.51c0.94,4.2,0.07,8.78-2.79,12.44
		c-5.07,6.49-14.43,7.63-20.92,2.57l-1.36-1.08c-3.7-2.89-9.03-2.04-11.92,1.34l0.14-0.15c-0.45,0.46-0.84,1-1.18,1.58
		c-2.21,3.83-0.9,8.72,2.93,10.93s8.72,0.9,10.93-2.93c1.03-1.78,1.54-3.79,1.13-5.72c1.52,4.03,1.29,8.69-1.04,12.71
		c-4.11,7.13-13.23,9.57-20.36,5.45l-1.5-0.88c-4.07-2.35-9.23-0.76-11.62,2.98l0.12-0.17c-0.38,0.52-0.69,1.11-0.94,1.73
		c-1.66,4.1,0.32,8.76,4.42,10.42c4.1,1.66,8.76-0.32,10.42-4.42c0.77-1.91,1-3.97,0.32-5.82c2.07,3.78,2.48,8.42,0.74,12.73
		c-3.08,7.63-11.77,11.32-19.4,8.23l-1.61-0.66c-4.35-1.76-9.24,0.53-11.09,4.57l0.1-0.19c-0.3,0.57-0.53,1.19-0.69,1.85
		c-1.07,4.29,1.54,8.63,5.83,9.7c4.29,1.07,8.63-1.54,9.7-5.83c0.5-2,0.44-4.07-0.49-5.81c2.57,3.46,3.63,8,2.51,12.5
		c-1.99,7.99-10.08,12.84-18.06,10.85l-1.68-0.43c-4.56-1.14-9.08,1.81-10.35,6.07l0.07-0.2c-0.22,0.61-0.36,1.25-0.43,1.92
		c-0.46,4.39,2.73,8.33,7.12,8.79c4.39,0.46,8.33-2.73,8.79-7.12c0.22-2.05-0.13-4.09-1.29-5.68c3.03,3.07,4.71,7.41,4.22,12.03
		c-0.86,8.18-8.19,14.12-16.38,13.26l-1.73-0.19c-4.67-0.49-8.74,3.06-9.4,7.45l0.04-0.21c-0.14,0.63-0.18,1.29-0.16,1.97
		c0.15,4.42,3.86,7.87,8.28,7.72c4.42-0.15,7.87-3.86,7.72-8.28c-0.07-2.06-0.7-4.03-2.07-5.45c3.42,2.61,5.69,6.69,5.86,11.33
		c0.29,8.22-6.15,15.13-14.37,15.41l-1.74,0.05c-4.69,0.16-8.23,4.25-8.27,8.69l0.01-0.21c-0.05,0.64,0,1.3,0.12,1.97
		c0.77,4.35,4.92,7.26,9.27,6.49s7.26-4.92,6.49-9.27c-0.36-2.03-1.26-3.9-2.81-5.11c3.76,2.11,6.57,5.83,7.38,10.4
		c1.43,8.1-3.98,15.83-12.09,17.26l-1.71,0.29c-4.62,0.82-7.56,5.35-6.98,9.76l-0.02-0.21c0.04,0.64,0.18,1.29,0.39,1.93
		c1.37,4.2,5.88,6.5,10.08,5.14c4.2-1.37,6.5-5.88,5.14-10.08c-0.64-1.96-1.79-3.68-3.49-4.67c4.01,1.57,7.32,4.86,8.75,9.27
		c2.54,7.83-1.74,16.23-9.57,18.78l-1.66,0.52c-4.47,1.45-6.74,6.35-5.56,10.63l-0.05-0.2c0.13,0.63,0.36,1.25,0.66,1.86
		c1.94,3.97,6.73,5.62,10.7,3.68c3.97-1.94,5.62-6.73,3.68-10.7c-0.9-1.85-2.28-3.4-4.11-4.14c4.19,1,7.92,3.79,9.96,7.97
		c3.61,7.4,0.54,16.32-6.86,19.93l-1.57,0.75c-4.22,2.06-5.79,7.23-4.02,11.3l-0.08-0.2c0.22,0.61,0.53,1.19,0.91,1.75
		c2.47,3.66,7.44,4.63,11.11,2.16c3.66-2.47,4.63-7.44,2.16-11.11c-1.15-1.71-2.73-3.05-4.64-3.52c4.29,0.4,8.37,2.65,10.97,6.5
		c4.6,6.82,2.8,16.08-4.02,20.69l-1.45,0.96c-3.89,2.63-4.73,7.96-2.41,11.75l-0.1-0.18c0.3,0.57,0.69,1.11,1.14,1.61
		c2.96,3.28,8.02,3.55,11.3,0.59c3.28-2.96,3.55-8.02,0.59-11.3c-1.38-1.53-3.13-2.64-5.09-2.84c4.3-0.2,8.66,1.46,11.77,4.91
		c5.51,6.12,5.01,15.54-1.1,21.04l-1.3,1.15c-3.49,3.14-3.57,8.54-0.75,11.97l-0.13-0.17c0.38,0.52,0.84,1,1.36,1.43
		c3.39,2.84,8.43,2.4,11.27-0.99c2.84-3.39,2.4-8.43-0.99-11.27c-1.58-1.32-3.47-2.18-5.44-2.11c4.23-0.8,8.78,0.24,12.34,3.23
		c6.3,5.29,7.13,14.69,1.84,20.99l-1.13,1.32c-3.02,3.6-2.35,8.96,0.92,11.96l-0.15-0.15c0.45,0.47,0.97,0.87,1.54,1.23
		c3.75,2.34,8.68,1.2,11.03-2.55c2.34-3.75,1.2-8.68-2.55-11.03c-1.75-1.09-3.74-1.67-5.68-1.33c4.08-1.38,8.73-0.98,12.67,1.48
		c6.98,4.36,9.1,13.55,4.74,20.53l-0.93,1.47c-2.49,3.98-1.08,9.2,2.58,11.72l-0.17-0.13c0.51,0.4,1.08,0.73,1.7,1
		c4.04,1.8,8.77-0.02,10.56-4.06s-0.02-8.77-4.06-10.56c-1.88-0.84-3.93-1.14-5.81-0.53c3.85-1.93,8.51-2.19,12.75-0.3
		c7.52,3.35,10.9,12.16,7.55,19.67l-0.72,1.58c-1.91,4.29,0.21,9.26,4.18,11.24l-0.18-0.1c0.56,0.32,1.17,0.57,1.82,0.76
		c4.25,1.22,8.68-1.24,9.9-5.49c1.22-4.25-1.24-8.68-5.49-9.9c-1.98-0.57-4.05-0.58-5.82,0.29c3.55-2.45,8.12-3.35,12.58-2.07
		c7.91,2.27,12.49,10.52,10.22,18.43l-0.49,1.67c-1.29,4.51,1.5,9.14,5.71,10.55l-0.2-0.08c0.6,0.24,1.24,0.4,1.91,0.5
		c4.38,0.61,8.42-2.43,9.04-6.81s-2.43-8.42-6.81-9.04c-2.04-0.29-4.1-0.01-5.73,1.09c3.17-2.92,7.57-4.45,12.17-3.8
		c8.15,1.15,13.83,8.68,12.68,16.83l-0.25,1.72c-0.65,4.65,2.75,8.84,7.12,9.66l-0.2-0.05c0.63,0.16,1.28,0.23,1.96,0.23
		c4.42,0,8-3.58,8-8c0-4.42-3.58-8-8-8c-2.06,0-4.06,0.56-5.52,1.88c2.73-3.33,6.88-5.46,11.53-5.46c8.23,0,14.9,6.67,14.9,14.9
		l-0.01,1.74c0,4.7,3.96,8.37,8.39,8.57l-0.21-0.02c0.64,0.07,1.3,0.04,1.97-0.05c4.38-0.61,7.43-4.66,6.81-9.04
		c-0.62-4.38-4.66-7.43-9.04-6.81c-2.04,0.29-3.94,1.12-5.2,2.63c2.24-3.68,6.05-6.36,10.65-7.01c8.15-1.15,15.68,4.53,16.83,12.68
		l0.23,1.72c0.65,4.65,5.08,7.74,9.51,7.32l-0.21,0.01c0.65-0.02,1.3-0.14,1.95-0.32c4.25-1.22,6.7-5.65,5.49-9.9
		c-1.22-4.25-5.65-6.7-9.9-5.49c-1.98,0.57-3.74,1.66-4.79,3.33c1.71-3.96,5.11-7.14,9.57-8.42c7.91-2.27,16.16,2.31,18.43,10.22
		l0.47,1.67c1.29,4.51,6.11,6.96,10.43,5.93l-0.21,0.04c0.64-0.11,1.26-0.32,1.88-0.59c4.04-1.8,5.85-6.53,4.06-10.56
		c-1.8-4.04-6.53-5.85-10.56-4.06c-1.88,0.84-3.48,2.16-4.28,3.96c1.14-4.15,4.07-7.78,8.31-9.67c7.52-3.35,16.33,0.03,19.67,7.55
		l0.7,1.59c1.91,4.29,7.02,6.04,11.15,4.42l-0.2,0.07c0.61-0.2,1.21-0.49,1.78-0.85c3.75-2.34,4.89-7.28,2.55-11.03
		c-2.34-3.75-7.28-4.89-11.03-2.55c-1.75,1.09-3.14,2.63-3.68,4.52c0.55-4.27,2.94-8.27,6.88-10.74c6.98-4.36,16.17-2.24,20.53,4.74
		l0.91,1.48c2.49,3.98,7.79,5,11.66,2.82l-0.19,0.1c0.58-0.28,1.13-0.65,1.65-1.09c3.39-2.84,3.83-7.89,0.99-11.27
		c-2.84-3.39-7.89-3.83-11.27-0.99c-1.58,1.32-2.75,3.04-3.02,4.99c-0.05-4.31,1.76-8.6,5.32-11.59c6.3-5.29,15.7-4.47,20.99,1.84
		l1.11,1.34c3.02,3.6,8.41,3.87,11.94,1.17l-0.17,0.12c0.54-0.36,1.03-0.8,1.48-1.3c2.96-3.28,2.69-8.34-0.59-11.3
		s-8.34-2.69-11.3,0.59c-1.38,1.53-2.3,3.39-2.3,5.36c-0.65-4.26,0.55-8.76,3.66-12.22c5.51-6.12,14.93-6.61,21.04-1.1l1.28,1.17
		c3.49,3.14,8.87,2.66,11.99-0.5l-0.15,0.14c0.48-0.43,0.91-0.94,1.28-1.5c2.47-3.66,1.5-8.64-2.16-11.11
		c-3.66-2.47-8.64-1.5-11.11,2.16c-1.15,1.71-1.8,3.68-1.53,5.63c-1.23-4.13-0.68-8.76,1.92-12.61c4.6-6.82,13.86-8.62,20.69-4.02
		l1.43,0.98c3.89,2.63,9.15,1.4,11.8-2.17l-0.13,0.16c0.42-0.49,0.77-1.05,1.06-1.66c1.94-3.97,0.29-8.76-3.68-10.7
		c-3.97-1.94-8.76-0.29-10.7,3.68c-0.9,1.85-1.27,3.89-0.73,5.78c-1.8-3.92-1.89-8.58,0.15-12.75c3.61-7.4,12.53-10.47,19.93-6.86
		l1.56,0.77c4.22,2.06,9.26,0.11,11.38-3.79l-0.11,0.18c0.34-0.55,0.61-1.15,0.82-1.79c1.37-4.2-0.93-8.72-5.14-10.08
		c-4.2-1.37-8.72,0.93-10.08,5.14c-0.64,1.96-0.72,4.03,0.08,5.83c-2.32-3.63-3.06-8.23-1.63-12.65
		c2.54-7.83,10.95-12.11,18.78-9.57l1.65,0.55c4.47,1.45,9.18-1.18,10.75-5.33l-0.08,0.19c0.26-0.59,0.45-1.22,0.56-1.89
		c0.77-4.35-2.14-8.5-6.49-9.27s-8.5,2.14-9.27,6.49c-0.36,2.03-0.15,4.09,0.89,5.76c-2.81-3.27-4.18-7.72-3.37-12.3
		c1.43-8.1,9.16-13.52,17.26-12.09l1.71,0.31c4.62,0.82,8.93-2.44,9.9-6.78l-0.05,0.2c0.18-0.62,0.27-1.28,0.29-1.95
		c0.15-4.42-3.3-8.12-7.72-8.28s-8.12,3.3-8.28,7.72c-0.07,2.06,0.42,4.07,1.69,5.58c-3.23-2.85-5.21-7.07-5.05-11.71
		c0.29-8.22,7.19-14.66,15.41-14.37l1.74,0.07c4.69,0.16,8.5-3.66,8.86-8.09l-0.03,0.21c0.09-0.64,0.09-1.3,0.02-1.97
		c-0.46-4.39-4.4-7.58-8.79-7.12c-4.39,0.46-7.58,4.4-7.12,8.79c0.22,2.05,0.98,3.98,2.45,5.29c-3.6-2.37-6.15-6.27-6.63-10.89
		c-0.86-8.18,5.08-15.52,13.26-16.38l1.73-0.17c4.67-0.49,7.91-4.81,7.65-9.24l0,0.21c0-0.65-0.09-1.3-0.25-1.96
		c-1.07-4.29-5.41-6.9-9.7-5.83c-4.29,1.07-6.9,5.41-5.83,9.7c0.5,2,1.53,3.8,3.16,4.9c-3.89-1.85-6.96-5.36-8.08-9.86
		c-1.99-7.99,2.87-16.07,10.85-18.06l1.69-0.41c4.56-1.14,7.17-5.86,6.29-10.22l0.03,0.21c-0.09-0.64-0.27-1.27-0.52-1.9
		c-1.66-4.1-6.32-6.08-10.42-4.42s-6.08,6.32-4.42,10.42c0.77,1.91,2.04,3.55,3.81,4.41c-4.11-1.29-7.64-4.33-9.38-8.64
		c-3.08-7.63,0.6-16.32,8.23-19.4l1.62-0.64c4.35-1.76,6.28-6.8,4.8-10.99l0.06,0.2c-0.18-0.62-0.45-1.22-0.78-1.81
		c-2.21-3.83-7.1-5.14-10.93-2.93c-3.83,2.21-5.14,7.1-2.93,10.93c1.03,1.78,2.51,3.23,4.39,3.84c-4.25-0.7-8.17-3.23-10.49-7.25
		c-4.11-7.13-1.67-16.24,5.45-20.36l1.51-0.86c4.07-2.35,5.27-7.61,3.23-11.56l0.09,0.19c-0.26-0.59-0.61-1.15-1.03-1.68
		c-2.72-3.48-7.75-4.1-11.23-1.38c-3.48,2.72-4.1,7.75-1.38,11.23c1.27,1.62,2.94,2.85,4.88,3.19c-4.31-0.1-8.54-2.06-11.4-5.72
		c-5.07-6.49-3.92-15.85,2.57-20.92l1.38-1.06c3.7-2.89,4.16-8.27,1.59-11.89"/>
</g>
</svg>
