<?xml version="1.0" encoding="UTF-8"?>
<svg id="Capa_1" xmlns="http://www.w3.org/2000/svg" version="1.1" viewBox="0 0 1399.7 544.1">
  <!-- Generator: Adobe Illustrator 29.1.0, SVG Export Plug-In . SVG Version: 2.1.0 Build 142)  -->
  <path d="M1323.9,118.7c-109.6,13-208.6,49-315.4,102.5-3.5-35.5-6.5-67.9-13.4-105.6,80.4-11,181.8,16.1,181.8,16.1,0,0-86-52.6-212.7-49.5,4.6,45.4,3.6,143.9-4.9,219.5,107.9-70.9,219.2-137.4,302.4-156.9-26.4,21.4-83.6,76.5-137.7,137.6-4.8,46.9-52.7,87.6-105.2,48.9,17.2,46.2,22.1,83,27.3,118.7,69.3-103.2,196.2-264.8,277.7-331.1Z"/>
  <g>
    <path d="M164.2,250.5c-3.2,0-7.7,1.3-10.4,7.5l-78.1,191.9h21.9l66.6-164.3,66.6,164.3h21.9l-78.1-192c-2.7-6.1-7.2-7.4-10.6-7.4Z"/>
    <path d="M297.5,257.9c-8.6,4.9-15.6,11.6-20.6,19.8-5,8.3-7.6,17.5-7.6,27.3v90.3c0,9.9,2.5,19.1,7.6,27.3,5,8.2,11.9,14.9,20.6,19.8,8.6,4.9,18.3,7.4,28.8,7.4h77.5v-19.7h-77.7c-6.7,0-12.9-1.6-18.5-4.8-5.6-3.2-10.2-7.5-13.5-12.9-3.3-5.4-5-11.3-5-17.6v-89.4c0-6.5,1.7-12.4,5-17.7,3.3-5.3,7.9-9.6,13.5-12.8,5.6-3.2,11.9-4.8,18.5-4.8h77.7v-19.7h-77.5c-10.5,0-20.2,2.5-28.8,7.4Z"/>
    <rect x="305.7" y="340.4" width="92.6" height="19.7"/>
    <rect x="322" y="215.7" width="18.8" height="18.8"/>
    <rect x="359.5" y="215.7" width="18.8" height="18.8"/>
    <polygon points="421.8 270.2 487.4 270.2 487.4 449.9 507.2 449.9 507.2 270.2 572.6 270.2 572.6 250.5 421.8 250.5 421.8 270.2"/>
    <path d="M715.5,257.8h0c-8.5-4.8-17.9-7.3-28.1-7.3h-48.5c-10.2,0-19.6,2.5-28.1,7.4-8.5,4.9-15.3,11.7-20.3,20.1-5,8.4-7.6,17.7-7.6,27.6v89.4c0,9.9,2.5,19.1,7.6,27.6,5,8.4,11.9,15.1,20.4,20.1,8.6,4.9,18,7.4,28,7.4h48.5c10,0,19.4-2.5,28-7.4,8.6-4.9,15.4-11.7,20.4-20.1,5-8.4,7.6-17.7,7.6-27.6v-89.8c0-9.9-2.5-19.1-7.6-27.4-5-8.3-11.8-15-20.3-19.8ZM638.8,270.2h48.3c6.7,0,12.9,1.6,18.4,4.7,5.5,3.1,10,7.3,13.2,12.6,3.2,5.2,4.8,11.1,4.8,17.6v89.8c0,6.3-1.7,12.2-5,17.6-3.3,5.4-7.8,9.8-13.3,13-5.4,3.2-11.6,4.8-18.2,4.8h-48.3c-6.7,0-12.8-1.6-18.2-4.8-5.5-3.2-9.9-7.5-13.2-12.9-3.2-5.4-4.9-11.3-4.9-17.6v-89.4c0-6.5,1.6-12.4,4.9-17.7,3.2-5.3,7.7-9.6,13.2-12.8,5.5-3.2,11.6-4.8,18.2-4.8Z"/>
    <path d="M912.7,367.7c-5-8.3-11.8-15-20.3-19.9-8.5-4.9-18-7.4-28.1-7.4h-41.1c-6.7,0-12.8-1.6-18.3-4.7-5.5-3.1-9.9-7.4-13.1-12.8-3.2-5.4-4.9-11.3-4.9-17.6s1.6-12.2,4.9-17.5c3.2-5.3,7.7-9.6,13.2-12.8,5.5-3.2,11.6-4.8,18.2-4.8h86.7v-19.7h-86.7c-10.2,0-19.6,2.5-28.1,7.4-8.5,4.9-15.3,11.6-20.3,19.8-5,8.3-7.6,17.5-7.6,27.6s2.5,19.1,7.6,27.6c5,8.4,11.9,15.1,20.5,20,8.6,4.8,18,7.3,28,7.3h41.1c6.5,0,12.6,1.6,18.1,4.8,5.5,3.2,10,7.5,13.1,12.8,3.2,5.3,4.8,11.2,4.8,17.5s-1.6,12.2-4.8,17.5c-3.2,5.3-7.6,9.6-13,12.8-5.4,3.2-11.6,4.8-18.2,4.8h-84.5v19.7h84.5c10,0,19.4-2.5,28-7.4,8.6-4.9,15.4-11.6,20.4-19.9,5-8.3,7.6-17.6,7.6-27.4s-2.5-19.1-7.6-27.4Z"/>
  </g>
</svg>