<?xml version="1.0" encoding="utf-8"?>
<!-- Generator: Adobe Illustrator 28.4.1, SVG Export Plug-In . SVG Version: 6.00 Build 0)  -->
<svg version="1.1" id="Layer_1" fill="#00091b" xmlns="http://www.w3.org/2000/svg" xmlns:xlink="http://www.w3.org/1999/xlink" x="0px" y="0px"
	 viewBox="0 0 1366 540" style="enable-background:new 0 0 1366 540;" xml:space="preserve">
<g>
	<path d="M183.41,120.03c-4.73,0-11.18,1.89-15.11,11L54.47,413.02h31.96l97.16-241.39l97.16,241.39h31.96L198.83,130.93
		C194.94,121.92,188.3,120.03,183.41,120.03z"/>
	<path d="M377.83,130.92c-12.61,7.22-22.69,17.01-29.98,29.09c-7.33,12.14-11.05,25.65-11.05,40.16v132.71
		c0,14.51,3.72,28.02,11.05,40.16c7.29,12.09,17.38,21.88,29.98,29.09c12.6,7.22,26.74,10.89,42.04,10.89h113.01v-28.98H419.52
		c-9.74,0-18.82-2.37-27.01-7.04c-8.21-4.68-14.83-11.07-19.69-19.01c-4.81-7.87-7.25-16.55-7.25-25.82V200.88
		c0-9.49,2.43-18.23,7.24-25.97c4.85-7.82,11.48-14.17,19.7-18.85c8.2-4.67,17.28-7.04,27.01-7.04h113.36v-28.98H419.87
		C404.59,120.03,390.44,123.7,377.83,130.92z"/>
	<rect x="389.76" y="252.04" width="135.02" height="28.98"/>
	<rect x="413.54" y="68.94" width="27.36" height="27.56"/>
	<rect x="468.22" y="68.94" width="27.36" height="27.56"/>
	<polygon points="559.05,149.02 654.86,149.02 654.86,413.02 683.62,413.02 683.62,149.02 779.08,149.02 779.08,120.03 
		559.05,120.03 	"/>
	<path d="M987.39,130.74L987.39,130.74c-12.38-7.11-26.17-10.71-40.99-10.71h-70.8c-14.83,0-28.63,3.67-41.01,10.91
		c-12.37,7.23-22.33,17.14-29.62,29.46c-7.32,12.37-11.03,25.99-11.03,40.48v131.29c0,14.5,3.71,28.12,11.03,40.48
		c7.29,12.34,17.33,22.26,29.81,29.47c12.48,7.23,26.22,10.9,40.82,10.9h70.8c14.6,0,28.33-3.67,40.82-10.9
		c12.48-7.22,22.51-17.13,29.81-29.47c7.32-12.38,11.03-26,11.03-40.48v-132c0-14.49-3.71-28.05-11.04-40.32
		C1009.72,147.64,999.75,137.84,987.39,130.74z M875.6,149.02h70.45c9.73,0,18.77,2.31,26.85,6.87
		c8.08,4.56,14.58,10.77,19.32,18.47c4.69,7.63,7.07,16.32,7.07,25.81v132c0,9.27-2.44,17.96-7.25,25.82
		c-4.86,7.95-11.38,14.35-19.38,19.03c-7.94,4.65-16.9,7.01-26.61,7.01H875.6c-9.72,0-18.67-2.36-26.61-7.01
		c-7.99-4.68-14.44-11.07-19.18-19c-4.71-7.87-7.1-16.57-7.1-25.86V200.88c0-9.51,2.38-18.27,7.09-26.01
		c4.74-7.82,11.19-14.15,19.19-18.84C856.94,151.38,865.89,149.02,875.6,149.02z"/>
	<path d="M1274.96,292.21c-7.3-12.2-17.26-22.05-29.61-29.27c-12.39-7.24-26.19-10.91-41.01-10.91h-59.88
		c-9.73,0-18.7-2.31-26.65-6.86c-7.97-4.56-14.41-10.88-19.14-18.79c-4.71-7.87-7.1-16.57-7.1-25.86c0-9.28,2.38-17.91,7.09-25.66
		c4.74-7.82,11.19-14.15,19.19-18.84c7.95-4.65,16.9-7.01,26.61-7.01h126.39v-28.98h-126.39c-14.83,0-28.63,3.67-41.02,10.91
		c-12.35,7.22-22.31,17-29.59,29.07c-7.33,12.14-11.05,25.77-11.05,40.51c0,14.5,3.71,28.11,11.03,40.48
		c7.3,12.34,17.34,22.21,29.84,29.32c12.49,7.1,26.21,10.7,40.79,10.7h59.88c9.48,0,18.38,2.36,26.46,7.02
		c8.08,4.67,14.53,10.99,19.15,18.79c4.6,7.76,6.93,16.41,6.93,25.7c0,9.29-2.33,17.93-6.93,25.7c-4.63,7.81-11.02,14.14-19,18.8
		c-7.94,4.65-16.9,7.01-26.61,7.01h-123.22v28.98h123.22c14.6,0,28.33-3.67,40.82-10.9c12.47-7.22,22.5-17.07,29.8-29.28
		c7.32-12.26,11.04-25.82,11.04-40.32C1286,318.04,1282.29,304.48,1274.96,292.21z"/>
</g>
</svg>
