<?xml version="1.0" encoding="utf-8"?>
<!-- Generator: Adobe Illustrator 24.2.0, SVG Export Plug-In . SVG Version: 6.00 Build 0)  -->
<svg version="1.1" id="Capa_1_copia" xmlns="http://www.w3.org/2000/svg" xmlns:xlink="http://www.w3.org/1999/xlink" x="0px"
	 y="0px" viewBox="0 0 876 876" style="enable-background:new 0 0 876 876;" xml:space="preserve">
<style type="text/css">
	.st0{fill:#00091b;}
</style>
<path class="st0" d="M729.9,647.4c-43.7-40.9-152.2-144.6-252-240.4c63-74,109.5-128.7,109.5-128.7c23.1,19,42.2,36.6,64.6,57.4
	c37.7,36.2,89.7,45.4,135,63.4c-22.1-49.1-35-93.7-72.1-132.6c-22.3-20.9-36.7-36.6-57.4-56.3c13.3-13.2,38.5-32.4,52.2-45.1
	c-30.1-4.9-37.1-6.6-64.7-10.3c-5.5,10.3-6.9,14.7-14.5,25.8c-30.5-32-61.3-66.6-82.1-90.1l-64.5,98.7l78.6,67.7L445.3,375.7
	c-91.5-87.8-168.2-161.6-168.2-161.6l96.5-53.3L339,94.7c-73.5,49.3-138.1,93-250,172c34.5,29.5,47.9,39.4,84.7,69.8l78-103.1
	L411.4,410L191.7,632.7l-34.2,152.8c44.4-53.5,179.8-213,286.9-339l306.6,339C743.2,728.3,736.3,688.3,729.9,647.4z"/>
</svg>
