<?xml version="1.0" encoding="utf-8"?>
<!-- Generator: Adobe Illustrator 24.2.0, SVG Export Plug-In . SVG Version: 6.00 Build 0)  -->
<svg version="1.1" id="Capa_1_copia" xmlns="http://www.w3.org/2000/svg" xmlns:xlink="http://www.w3.org/1999/xlink" x="0px"
	 y="0px" viewBox="0 0 876 876" style="enable-background:new 0 0 876 876;" xml:space="preserve">
<style type="text/css">
	.st0{fill:#1D1D1B;}
</style>
<path class="st0" d="M363.43,260.44c22.51-31.13,42.62-47.88,70.39-58.9c-0.88,56.77-12.29,351-127.85,317.96
	c-20.59-141.26-59.86-218.36-73.74-242.78c22.03,0,46.45,8.14,76.19,24.77c-35.95-33.64-77.24-65.24-126.2-76.38
	c61.38,74.98,84.49,246.98,62.46,326.95c-4.25,15.43,156.58,112.53,163.39,226.59v31h63.96v-31
	c6.81-114.06,167.64-211.16,163.39-226.59c-22.03-79.97,1.08-251.97,62.46-326.95c-48.96,11.14-90.25,42.74-126.2,76.38
	c29.74-16.63,54.16-24.77,76.19-24.77c-13.89,24.42-53.15,101.52-73.74,242.78c-115.56,33.04-116.84-414.52-116.84-414.52
	S381.63,183.82,363.43,260.44z"/>
</svg>
