<?xml version="1.0" encoding="utf-8"?>
<!-- Generator: Adobe Illustrator 24.2.0, SVG Export Plug-In . SVG Version: 6.00 Build 0)  -->
<svg version="1.1" id="Capa_1" xmlns="http://www.w3.org/2000/svg" xmlns:xlink="http://www.w3.org/1999/xlink" x="0px" y="0px"
	 viewBox="0 0 576.7 578.45" style="enable-background:new 0 0 576.7 578.45;" xml:space="preserve">
<g>
	<g>
		<path d="M57.76,298.11c0-128.31,104.01-232.32,232.32-232.32s232.32,104.01,232.32,232.32S418.38,530.43,290.08,530.43
			S57.76,426.42,57.76,298.11z M469.15,189.03c-0.32-0.51-0.71-0.98-1.16-1.41c-2.94-2.84-7.64-2.76-10.48,0.18
			c-2.84,2.94-2.76,7.64,0.18,10.48c1.37,1.33,3.06,2.24,4.89,2.3c-3.96,0.46-8.1-0.79-11.19-3.78c-5.48-5.3-5.64-14.03-0.34-19.52
			l1.13-1.15c3.02-3.13,2.75-8.12-0.08-11.11l0.13,0.15c-0.38-0.46-0.84-0.87-1.35-1.24c-3.31-2.41-7.95-1.67-10.35,1.64
			c-2.41,3.31-1.67,7.95,1.64,10.35c1.54,1.12,3.35,1.79,5.16,1.6c-3.86,1.01-8.13,0.34-11.61-2.18
			c-6.17-4.48-7.53-13.11-3.05-19.28l0.96-1.3c2.56-3.52,1.59-8.43-1.62-10.99l0.15,0.13c-0.44-0.4-0.95-0.74-1.5-1.04
			c-3.61-1.92-8.1-0.55-10.02,3.06s-0.55,8.1,3.06,10.02c1.68,0.9,3.56,1.3,5.33,0.86c-3.68,1.54-8,1.47-11.8-0.55
			c-6.73-3.58-9.29-11.94-5.71-18.67l0.77-1.42c2.04-3.84,0.4-8.57-3.14-10.66l0.16,0.11c-0.5-0.34-1.05-0.6-1.63-0.82
			c-3.85-1.4-8.1,0.58-9.5,4.43s0.58,8.1,4.43,9.5c1.79,0.65,3.71,0.8,5.4,0.11c-3.43,2.03-7.72,2.57-11.76,1.1
			c-7.16-2.61-10.86-10.53-8.25-17.69l0.56-1.51c1.49-4.09-0.79-8.54-4.59-10.12l0.18,0.08c-0.54-0.26-1.12-0.45-1.73-0.58
			c-4-0.85-7.94,1.7-8.79,5.71c-0.85,4,1.7,7.94,5.71,8.79c1.87,0.4,3.78,0.27,5.36-0.64c-3.12,2.49-7.28,3.62-11.49,2.73
			c-7.46-1.58-12.22-8.91-10.63-16.37l0.35-1.57c0.9-4.25-1.97-8.35-5.95-9.38l0.19,0.06c-0.57-0.19-1.17-0.29-1.8-0.34
			c-4.08-0.29-7.62,2.79-7.91,6.88s2.79,7.62,6.88,7.91c1.9,0.13,3.78-0.26,5.22-1.38c-2.74,2.9-6.71,4.6-11,4.3
			c-7.6-0.53-13.34-7.13-12.81-14.73l0.12-1.61c0.3-4.34-3.12-7.99-7.2-8.46l0.19,0.03c-0.59-0.11-1.2-0.13-1.82-0.08
			c-4.08,0.29-7.16,3.83-6.88,7.91c0.29,4.08,3.83,7.16,7.91,6.88c1.9-0.13,3.71-0.78,4.98-2.09c-2.31,3.25-6,5.49-10.3,5.79
			c-7.6,0.53-14.2-5.2-14.73-12.81l-0.1-1.61c-0.3-4.34-4.2-7.48-8.31-7.38l0.19,0c-0.6-0.02-1.21,0.04-1.82,0.17
			c-4,0.85-6.56,4.79-5.71,8.79c0.85,4,4.79,6.56,8.79,5.71c1.87-0.4,3.57-1.29,4.64-2.77c-1.83,3.54-5.18,6.27-9.39,7.16
			c-7.46,1.58-14.79-3.17-16.37-10.63l-0.32-1.58c-0.9-4.25-5.2-6.82-9.26-6.15l0.19-0.02c-0.6,0.06-1.19,0.21-1.78,0.42
			c-3.85,1.4-5.83,5.65-4.43,9.5c1.4,3.85,5.65,5.83,9.5,4.43c1.79-0.65,3.35-1.77,4.21-3.38c-1.32,3.77-4.26,6.93-8.3,8.4
			c-7.16,2.61-15.08-1.09-17.69-8.25l-0.54-1.52c-1.49-4.09-6.1-6.03-10.02-4.8l0.19-0.05c-0.58,0.14-1.15,0.37-1.7,0.67
			c-3.61,1.92-4.99,6.41-3.06,10.02c1.92,3.61,6.41,4.99,10.02,3.06c1.68-0.9,3.07-2.22,3.7-3.94c-0.79,3.91-3.25,7.46-7.05,9.48
			c-6.73,3.58-15.09,1.02-18.67-5.71l-0.75-1.43c-2.04-3.84-6.88-5.13-10.59-3.36l0.18-0.08c-0.56,0.22-1.08,0.53-1.59,0.9
			c-3.31,2.41-4.05,7.04-1.64,10.35c2.41,3.31,7.04,4.05,10.35,1.64c1.54-1.12,2.73-2.63,3.11-4.41c-0.23,3.98-2.18,7.84-5.66,10.36
			c-6.17,4.48-14.8,3.11-19.28-3.05l-0.94-1.31c-2.56-3.52-7.52-4.12-10.96-1.85l0.17-0.1c-0.52,0.3-1,0.68-1.45,1.11
			c-2.94,2.84-3.03,7.54-0.18,10.48c2.84,2.94,7.54,3.03,10.48,0.18c1.37-1.33,2.34-2.98,2.47-4.8c0.32,3.98-1.07,8.06-4.17,11.05
			c-5.48,5.3-14.22,5.14-19.52-0.34l-1.11-1.17c-3.02-3.13-8.02-3.03-11.11-0.31l0.15-0.12c-0.47,0.37-0.9,0.81-1.28,1.3
			c-2.52,3.23-1.95,7.88,1.28,10.4s7.88,1.95,10.4-1.28c1.17-1.5,1.9-3.28,1.78-5.1c0.87,3.89,0.06,8.13-2.59,11.52
			c-4.69,6.01-13.37,7.07-19.37,2.38l-1.26-1c-3.43-2.68-8.37-1.89-11.04,1.24l0.13-0.14c-0.42,0.43-0.78,0.93-1.09,1.47
			c-2.05,3.54-0.83,8.08,2.71,10.12s8.08,0.83,10.12-2.71c0.95-1.65,1.43-3.51,1.05-5.3c1.41,3.73,1.19,8.05-0.96,11.77
			c-3.81,6.6-12.25,8.86-18.85,5.05l-1.39-0.82c-3.77-2.17-8.55-0.7-10.76,2.76l0.11-0.16c-0.35,0.48-0.64,1.02-0.87,1.6
			c-1.53,3.8,0.3,8.11,4.1,9.65c3.8,1.53,8.11-0.3,9.65-4.1c0.71-1.77,0.93-3.68,0.3-5.39c1.91,3.5,2.3,7.8,0.69,11.79
			c-2.86,7.07-10.9,10.48-17.97,7.63l-1.49-0.61c-4.03-1.63-8.56,0.49-10.27,4.23l0.09-0.17c-0.28,0.53-0.49,1.1-0.64,1.71
			c-0.99,3.97,1.43,7.99,5.4,8.98c3.97,0.99,7.99-1.43,8.98-5.4c0.46-1.85,0.4-3.77-0.45-5.38c2.38,3.2,3.36,7.41,2.32,11.58
			c-1.84,7.4-9.33,11.9-16.73,10.05l-1.56-0.4c-4.22-1.05-8.41,1.68-9.58,5.62l0.06-0.18c-0.21,0.56-0.33,1.16-0.4,1.78
			c-0.43,4.07,2.53,7.72,6.6,8.15c4.07,0.43,7.72-2.53,8.15-6.6c0.2-1.9-0.12-3.79-1.2-5.27c2.8,2.84,4.36,6.87,3.91,11.14
			c-0.8,7.58-7.59,13.08-15.17,12.28l-1.6-0.18c-4.33-0.45-8.09,2.83-8.71,6.9l0.04-0.19c-0.13,0.59-0.17,1.2-0.15,1.82
			c0.14,4.09,3.57,7.29,7.67,7.15c4.09-0.14,7.29-3.57,7.15-7.67c-0.07-1.91-0.65-3.74-1.92-5.05c3.17,2.42,5.27,6.19,5.42,10.49
			c0.27,7.62-5.69,14.01-13.31,14.28l-1.61,0.04c-4.35,0.15-7.62,3.93-7.66,8.05l0.01-0.19c-0.04,0.6,0,1.21,0.11,1.82
			c0.71,4.03,4.55,6.72,8.59,6.01c4.03-0.71,6.72-4.55,6.01-8.59c-0.33-1.88-1.16-3.61-2.6-4.73c3.48,1.96,6.09,5.4,6.83,9.63
			c1.32,7.51-3.69,14.67-11.2,15.99l-1.59,0.27c-4.28,0.76-7,4.96-6.47,9.04l-0.02-0.19c0.04,0.6,0.17,1.2,0.36,1.79
			c1.26,3.89,5.45,6.02,9.34,4.76c3.89-1.26,6.02-5.45,4.76-9.34c-0.59-1.81-1.66-3.41-3.24-4.32c3.72,1.45,6.78,4.5,8.11,8.59
			c2.36,7.25-1.61,15.04-8.86,17.39l-1.53,0.49c-4.14,1.34-6.24,5.88-5.15,9.85l-0.04-0.19c0.12,0.59,0.33,1.16,0.61,1.72
			c1.79,3.68,6.23,5.21,9.91,3.41c3.68-1.79,5.21-6.23,3.41-9.91c-0.84-1.71-2.11-3.15-3.81-3.83c3.88,0.92,7.34,3.51,9.22,7.38
			c3.34,6.85,0.5,15.11-6.35,18.46l-1.45,0.69c-3.91,1.91-5.36,6.69-3.73,10.47l-0.07-0.18c0.2,0.56,0.49,1.1,0.84,1.62
			c2.29,3.39,6.9,4.29,10.29,2c3.39-2.29,4.29-6.9,2-10.29c-1.07-1.58-2.53-2.82-4.3-3.26c3.97,0.37,7.75,2.46,10.16,6.02
			c4.26,6.32,2.6,14.9-3.72,19.16l-1.34,0.89c-3.61,2.43-4.38,7.37-2.23,10.89l-0.09-0.17c0.28,0.53,0.64,1.02,1.06,1.49
			c2.74,3.04,7.42,3.29,10.47,0.55s3.29-7.43,0.55-10.47c-1.28-1.42-2.9-2.44-4.71-2.63c3.99-0.18,8.02,1.35,10.9,4.55
			c5.1,5.66,4.64,14.39-1.02,19.49l-1.2,1.07c-3.23,2.91-3.31,7.91-0.7,11.09l-0.12-0.16c0.35,0.48,0.78,0.92,1.26,1.33
			c3.14,2.63,7.81,2.22,10.44-0.91c2.63-3.14,2.22-7.81-0.91-10.44c-1.46-1.23-3.21-2.02-5.03-1.95c3.92-0.74,8.13,0.22,11.43,2.99
			c5.84,4.9,6.6,13.61,1.7,19.44l-1.04,1.23c-2.8,3.33-2.18,8.3,0.85,11.08l-0.14-0.14c0.41,0.43,0.9,0.81,1.43,1.14
			c3.47,2.17,8.04,1.11,10.21-2.36c2.17-3.47,1.11-8.04-2.36-10.21c-1.62-1.01-3.46-1.55-5.26-1.23c3.78-1.28,8.08-0.91,11.73,1.37
			c6.46,4.04,8.43,12.55,4.39,19.02l-0.86,1.36c-2.3,3.69-1,8.52,2.39,10.85l-0.16-0.12c0.47,0.37,1,0.67,1.57,0.93
			c3.74,1.66,8.12-0.02,9.78-3.76c1.66-3.74-0.02-8.12-3.76-9.79c-1.74-0.78-3.64-1.05-5.38-0.49c3.57-1.79,7.88-2.03,11.81-0.28
			c6.96,3.1,10.1,11.26,6.99,18.22l-0.67,1.47c-1.77,3.97,0.19,8.57,3.87,10.42l-0.17-0.09c0.52,0.3,1.09,0.53,1.69,0.7
			c3.93,1.13,8.04-1.15,9.17-5.08c1.13-3.93-1.15-8.04-5.08-9.17c-1.83-0.53-3.75-0.54-5.39,0.26c3.28-2.27,7.52-3.1,11.65-1.92
			c7.33,2.1,11.56,9.74,9.46,17.07l-0.46,1.54c-1.2,4.18,1.39,8.46,5.29,9.77l-0.18-0.07c0.55,0.23,1.15,0.37,1.77,0.46
			c4.05,0.57,7.8-2.25,8.37-6.31c0.57-4.05-2.25-7.8-6.31-8.37c-1.89-0.27-3.79-0.01-5.3,1.01c2.94-2.7,7.01-4.12,11.27-3.52
			c7.55,1.06,12.81,8.04,11.75,15.59l-0.24,1.59c-0.61,4.31,2.55,8.19,6.59,8.94l-0.19-0.04c0.58,0.15,1.19,0.21,1.81,0.21
			c4.09,0,7.41-3.32,7.41-7.41s-3.32-7.41-7.41-7.41c-1.91,0-3.76,0.52-5.11,1.74c2.53-3.09,6.37-5.06,10.67-5.06
			c7.62,0,13.8,6.18,13.8,13.8l-0.01,1.61c0,4.35,3.67,7.75,7.77,7.94l-0.19-0.02c0.6,0.06,1.21,0.04,1.83-0.05
			c4.05-0.57,6.88-4.32,6.31-8.37c-0.57-4.05-4.32-6.88-8.37-6.31c-1.89,0.27-3.65,1.04-4.82,2.44c2.08-3.41,5.61-5.89,9.87-6.49
			c7.55-1.06,14.53,4.2,15.59,11.75l0.21,1.6c0.61,4.31,4.71,7.17,8.8,6.78l-0.19,0.01c0.6-0.02,1.2-0.13,1.8-0.3
			c3.93-1.13,6.21-5.23,5.08-9.17c-1.13-3.93-5.23-6.21-9.17-5.08c-1.83,0.53-3.47,1.54-4.43,3.08c1.58-3.66,4.73-6.62,8.87-7.8
			c7.33-2.1,14.97,2.14,17.07,9.46l0.43,1.55c1.2,4.18,5.66,6.44,9.66,5.49l-0.19,0.04c0.59-0.1,1.17-0.29,1.74-0.55
			c3.74-1.66,5.42-6.05,3.76-9.78c-1.66-3.74-6.05-5.42-9.78-3.76c-1.74,0.78-3.22,2-3.96,3.67c1.06-3.85,3.77-7.21,7.7-8.96
			c6.96-3.1,15.12,0.03,18.22,7l0.64,1.48c1.77,3.97,6.5,5.59,10.33,4.09l-0.18,0.06c0.57-0.18,1.12-0.45,1.65-0.78
			c3.47-2.17,4.53-6.74,2.36-10.21c-2.17-3.47-6.74-4.53-10.21-2.36c-1.62,1.01-2.91,2.43-3.41,4.18c0.51-3.96,2.73-7.66,6.37-9.94
			c6.46-4.04,14.98-2.07,19.02,4.39l0.84,1.37c2.3,3.69,7.22,4.63,10.8,2.61l-0.17,0.09c0.54-0.26,1.05-0.6,1.52-1.01
			c3.14-2.63,3.54-7.31,0.91-10.44s-7.31-3.54-10.44-0.91c-1.46,1.23-2.54,2.81-2.8,4.62c-0.04-3.99,1.63-7.97,4.93-10.73
			c5.84-4.9,14.54-4.14,19.44,1.7l1.03,1.24c2.8,3.33,7.79,3.58,11.06,1.08l-0.16,0.11c0.5-0.33,0.95-0.74,1.37-1.21
			c2.74-3.04,2.49-7.73-0.55-10.47c-3.04-2.74-7.73-2.49-10.47,0.55c-1.28,1.42-2.13,3.14-2.13,4.96c-0.6-3.95,0.51-8.12,3.39-11.32
			c5.1-5.66,13.83-6.12,19.49-1.02l1.19,1.09c3.23,2.91,8.21,2.46,11.1-0.47l-0.14,0.13c0.45-0.4,0.84-0.87,1.19-1.39
			c2.29-3.39,1.39-8-2-10.29c-3.39-2.29-8-1.39-10.29,2c-1.07,1.58-1.67,3.41-1.42,5.21c-1.14-3.82-0.63-8.11,1.78-11.68
			c4.26-6.32,12.84-7.99,19.16-3.72l1.33,0.91c3.61,2.43,8.48,1.3,10.93-2.01l-0.12,0.15c0.39-0.46,0.71-0.98,0.98-1.54
			c1.79-3.68,0.27-8.12-3.41-9.91c-3.68-1.79-8.12-0.27-9.91,3.41c-0.84,1.71-1.18,3.6-0.68,5.36c-1.66-3.63-1.75-7.94,0.14-11.81
			c3.34-6.85,11.6-9.7,18.46-6.35l1.44,0.72c3.91,1.91,8.58,0.1,10.54-3.51l-0.1,0.17c0.32-0.51,0.57-1.07,0.76-1.66
			c1.26-3.89-0.87-8.07-4.76-9.34c-3.89-1.26-8.07,0.87-9.34,4.76c-0.59,1.81-0.67,3.73,0.08,5.4c-2.15-3.36-2.84-7.62-1.51-11.71
			c2.36-7.25,10.14-11.22,17.39-8.86l1.53,0.51c4.14,1.34,8.51-1.09,9.95-4.94l-0.08,0.18c0.24-0.55,0.41-1.13,0.52-1.75
			c0.71-4.03-1.98-7.87-6.01-8.59c-4.03-0.71-7.87,1.98-8.59,6.01c-0.33,1.88-0.14,3.79,0.83,5.34c-2.6-3.03-3.87-7.15-3.12-11.39
			c1.32-7.51,8.48-12.52,15.99-11.2l1.58,0.29c4.28,0.76,8.27-2.26,9.17-6.28l-0.05,0.19c0.17-0.57,0.25-1.18,0.27-1.81
			c0.14-4.09-3.06-7.52-7.15-7.67c-4.09-0.14-7.52,3.06-7.67,7.15c-0.07,1.91,0.39,3.77,1.56,5.17c-3-2.64-4.83-6.54-4.68-10.84
			c0.27-7.62,6.66-13.58,14.28-13.31l1.61,0.07c4.35,0.15,7.88-3.39,8.21-7.49l-0.02,0.19c0.08-0.59,0.08-1.2,0.02-1.83
			c-0.43-4.07-4.07-7.02-8.15-6.6c-4.07,0.43-7.02,4.07-6.6,8.15c0.2,1.9,0.91,3.68,2.27,4.9c-3.33-2.19-5.69-5.81-6.14-10.09
			c-0.8-7.58,4.7-14.37,12.28-15.17l1.6-0.16c4.33-0.45,7.33-4.46,7.08-8.56l0,0.19c0-0.6-0.08-1.2-0.24-1.81
			c-0.99-3.97-5.01-6.39-8.98-5.4c-3.97,0.99-6.39,5.01-5.4,8.98c0.46,1.85,1.41,3.52,2.93,4.54c-3.61-1.71-6.45-4.96-7.49-9.13
			c-1.84-7.4,2.66-14.89,10.05-16.73l1.56-0.38c4.22-1.05,6.64-5.43,5.82-9.46l0.03,0.19c-0.08-0.59-0.25-1.18-0.49-1.76
			c-1.53-3.8-5.85-5.63-9.65-4.1c-3.8,1.53-5.63,5.85-4.1,9.65c0.71,1.77,1.89,3.29,3.53,4.09c-3.81-1.19-7.07-4.01-8.69-8
			c-2.86-7.07,0.56-15.11,7.63-17.97l1.5-0.59c4.03-1.63,5.82-6.3,4.45-10.18l0.06,0.19c-0.16-0.58-0.41-1.13-0.73-1.68
			c-2.05-3.54-6.58-4.76-10.12-2.71s-4.76,6.58-2.71,10.12c0.95,1.65,2.33,2.99,4.06,3.56c-3.94-0.65-7.56-2.99-9.72-6.72
			c-3.81-6.6-1.55-15.04,5.05-18.85l1.4-0.79c3.77-2.17,4.88-7.05,2.99-10.7l0.08,0.18c-0.24-0.55-0.57-1.07-0.95-1.56
			c-2.52-3.23-7.18-3.8-10.4-1.28c-3.23,2.52-3.8,7.18-1.28,10.4c1.17,1.5,2.72,2.64,4.52,2.96c-3.99-0.09-7.91-1.91-10.56-5.3
			c-4.69-6.01-3.63-14.68,2.38-19.37l1.28-0.98c3.43-2.68,3.85-7.66,1.47-11.01"/>
	</g>
	<path d="M415.46,395.05c-13.7-14.18-26.09-29.19-38.57-44.15c-12.32-15.06-24.17-30.44-35.78-45.96
		c-11.6-15.53-22.84-31.3-33.86-47.2c-11.02-15.9-21.72-32.02-32.28-48.22h28.92c-10.54,16.22-21.24,32.33-32.25,48.24
		c-11.04,15.89-22.24,31.68-33.85,47.2c-11.61,15.53-23.45,30.9-35.78,45.96c-12.49,14.95-24.89,29.97-38.61,44.13
		c7.28-18.32,15.89-35.79,24.4-53.31c8.68-17.42,17.84-34.53,27.24-51.48c9.39-16.96,19.2-33.65,29.16-50.24
		c10-16.57,20.3-32.93,30.77-49.2l14.48-22.51l14.44,22.51c10.44,16.28,20.75,32.64,30.73,49.22c9.98,16.58,19.75,33.3,29.15,50.24
		c9.39,16.96,18.55,34.07,27.24,51.48C399.54,359.28,408.15,376.75,415.46,395.05z"/>
</g>
</svg>
